Stretch Black Narrow Cy Sc vv(14.4-0.0)-(84.5-100.0)-0.0-0.0-(0.0-0.0).ufo
<glyph name="a-cy.sc" format="1">
  <advance width="1182"/>
  <outline>
    <contour>
      <point x="599" y="1287" type="move" name="top"/>
    </contour>
    <contour>
      <point x="1070" y="18" type="move" name="ogonek"/>
    </contour>
    <contour>
      <point x="472" y="-144" type="move" name="mark0"/>
    </contour>
    <contour>
      <point x="577" y="0" type="move" name="bottom"/>
    </contour>
    <contour>
      <point x="73" y="146" type="line"/>
      <point x="-18" y="126" type="line"/>
      <point x="-16" y="0" type="line"/>
      <point x="439" y="0" type="line"/>
      <point x="439" y="126" type="line"/>
      <point x="319" y="142" type="line"/>
      <point x="363" y="334" type="line"/>
      <point x="710" y="334" type="line"/>
      <point x="756" y="144" type="line"/>
      <point x="650" y="126" type="line"/>
      <point x="650" y="0" type="line"/>
      <point x="1200" y="0" type="line"/>
      <point x="1200" y="126" type="line"/>
      <point x="1116" y="144" type="line"/>
      <point x="768" y="1296" type="line"/>
      <point x="421" y="1296" type="line"/>
    </contour>
    <contour>
      <point x="674" y="480" type="line"/>
      <point x="396" y="480" type="line"/>
      <point x="516" y="982" type="line"/>
      <point x="533" y="1092" type="line"/>
      <point x="550" y="982" type="line"/>
    </contour>
  </outline>
</glyph>
<glyph name="abreve-cy.sc" format="1">
  <advance width="1182"/>
  <outline>
    <contour>
      <point x="434" y="1866" type="curve" smooth="yes"/>
      <point x="231" y="1866" type="line"/>
      <point x="231" y="1848"/>
      <point x="229" y="1830"/>
      <point x="229" y="1812" type="curve" smooth="yes"/>
      <point x="229" y="1602"/>
      <point x="377" y="1457"/>
      <point x="597" y="1457" type="curve" smooth="yes"/>
      <point x="828" y="1457"/>
      <point x="965" y="1601"/>
      <point x="965" y="1812" type="curve" smooth="yes"/>
      <point x="965" y="1824"/>
      <point x="965" y="1854"/>
      <point x="963" y="1866" type="curve"/>
      <point x="761" y="1866" type="line" smooth="yes"/>
      <point x="736" y="1866"/>
      <point x="731" y="1808"/>
      <point x="731" y="1771" type="curve" smooth="yes"/>
      <point x="731" y="1672"/>
      <point x="688" y="1581"/>
      <point x="599" y="1581" type="curve" smooth="yes"/>
      <point x="506" y="1581"/>
      <point x="462" y="1672"/>
      <point x="462" y="1771" type="curve" smooth="yes"/>
      <point x="462" y="1808"/>
      <point x="459" y="1866"/>
    </contour>
    <contour>
      <point x="73" y="146" type="line"/>
      <point x="-18" y="126" type="line"/>
      <point x="-16" y="0" type="line"/>
      <point x="439" y="0" type="line"/>
      <point x="439" y="126" type="line"/>
      <point x="319" y="142" type="line"/>
      <point x="363" y="334" type="line"/>
      <point x="710" y="334" type="line"/>
      <point x="756" y="144" type="line"/>
      <point x="650" y="126" type="line"/>
      <point x="650" y="0" type="line"/>
      <point x="1200" y="0" type="line"/>
      <point x="1200" y="126" type="line"/>
      <point x="1116" y="144" type="line"/>
      <point x="768" y="1296" type="line"/>
      <point x="421" y="1296" type="line"/>
    </contour>
    <contour>
      <point x="674" y="480" type="line"/>
      <point x="396" y="480" type="line"/>
      <point x="516" y="982" type="line"/>
      <point x="533" y="1092" type="line"/>
      <point x="550" y="982" type="line"/>
    </contour>
  </outline>
</glyph>
<glyph name="adieresis-cy.sc" format="1">
  <advance width="1182"/>
  <outline>
    <contour>
      <point x="806" y="1462" type="curve"/>
      <point x="928" y="1462"/>
      <point x="963" y="1544"/>
      <point x="963" y="1649" type="curve" smooth="yes"/>
      <point x="963" y="1732"/>
      <point x="925" y="1807"/>
      <point x="823" y="1807" type="curve" smooth="yes"/>
      <point x="715" y="1807"/>
      <point x="669" y="1724"/>
      <point x="669" y="1620" type="curve" smooth="yes"/>
      <point x="669" y="1544"/>
      <point x="713" y="1462"/>
    </contour>
    <contour>
      <point x="373" y="1462" type="curve" smooth="yes"/>
      <point x="495" y="1462"/>
      <point x="531" y="1544"/>
      <point x="531" y="1649" type="curve" smooth="yes"/>
      <point x="531" y="1732"/>
      <point x="493" y="1807"/>
      <point x="390" y="1807" type="curve"/>
      <point x="282" y="1807"/>
      <point x="238" y="1724"/>
      <point x="238" y="1620" type="curve" smooth="yes"/>
      <point x="238" y="1535"/>
      <point x="282" y="1462"/>
    </contour>
    <contour>
      <point x="73" y="146" type="line"/>
      <point x="-18" y="126" type="line"/>
      <point x="-16" y="0" type="line"/>
      <point x="439" y="0" type="line"/>
      <point x="439" y="126" type="line"/>
      <point x="319" y="142" type="line"/>
      <point x="363" y="334" type="line"/>
      <point x="710" y="334" type="line"/>
      <point x="756" y="144" type="line"/>
      <point x="650" y="126" type="line"/>
      <point x="650" y="0" type="line"/>
      <point x="1200" y="0" type="line"/>
      <point x="1200" y="126" type="line"/>
      <point x="1116" y="144" type="line"/>
      <point x="768" y="1296" type="line"/>
      <point x="421" y="1296" type="line"/>
    </contour>
    <contour>
      <point x="674" y="480" type="line"/>
      <point x="396" y="480" type="line"/>
      <point x="516" y="982" type="line"/>
      <point x="533" y="1092" type="line"/>
      <point x="550" y="982" type="line"/>
    </contour>
  </outline>
</glyph>
<glyph name="aie-cy.sc" format="1">
  <advance width="1564"/>
  <outline>
    <contour>
      <point x="782" y="1287" type="move" name="top"/>
    </contour>
    <contour>
      <point x="753" y="-144" type="move" name="mark0"/>
    </contour>
    <contour>
      <point x="782" y="0" type="move" name="bottom"/>
    </contour>
    <contour>
      <point x="651" y="145" type="line"/>
      <point x="531" y="124" type="line"/>
      <point x="531" y="0" type="line"/>
      <point x="1519" y="0" type="line"/>
      <point x="1572" y="332" type="line"/>
      <point x="1391" y="384" type="line"/>
      <point x="1287" y="155" type="line"/>
      <point x="977" y="130" type="line"/>
      <point x="977" y="583" type="line"/>
      <point x="1144" y="578" type="line"/>
      <point x="1172" y="426" type="line"/>
      <point x="1294" y="426" type="line"/>
      <point x="1294" y="877" type="line"/>
      <point x="1171" y="877" type="line"/>
      <point x="1142" y="738" type="line"/>
      <point x="977" y="732" type="line"/>
      <point x="977" y="1170" type="line"/>
      <point x="1262" y="1147" type="line"/>
      <point x="1322" y="969" type="line"/>
      <point x="1467" y="969" type="line"/>
      <point x="1444" y="1292" type="line"/>
      <point x="157" y="1292" type="line"/>
      <point x="157" y="1158" type="line"/>
      <point x="361" y="1132" type="line"/>
      <point x="-10" y="145" type="line"/>
      <point x="-123" y="124" type="line"/>
      <point x="-123" y="0" type="line"/>
      <point x="358" y="0" type="line"/>
      <point x="358" y="124" type="line"/>
      <point x="239" y="145" type="line"/>
      <point x="305" y="350" type="line"/>
      <point x="651" y="350" type="line"/>
    </contour>
    <contour>
      <point x="651" y="500" type="line"/>
      <point x="355" y="500" type="line"/>
      <point x="486" y="905" type="line"/>
      <point x="563" y="1155" type="line"/>
      <point x="651" y="1155" type="line"/>
    </contour>
  </outline>
</glyph>
<glyph name="che-cy.sc" format="1">
  <advance width="1243"/>
  <outline>
    <contour>
      <point x="605" y="1287" type="move" name="top"/>
    </contour>
    <contour>
      <point x="624" y="648" type="move" name="center"/>
    </contour>
    <contour>
      <point x="1213" y="0" type="move" name="bottomright"/>
    </contour>
    <contour>
      <point x="752" y="528" type="curve"/>
      <point x="752" y="147" type="line"/>
      <point x="577" y="126" type="line"/>
      <point x="577" y="0" type="line"/>
      <point x="1199" y="0" type="line"/>
      <point x="1199" y="124" type="line"/>
      <point x="1080" y="147" type="line"/>
      <point x="1080" y="1133" type="line"/>
      <point x="1198" y="1158" type="line"/>
      <point x="1198" y="1292" type="line"/>
      <point x="633" y="1292" type="line"/>
      <point x="633" y="1158" type="line"/>
      <point x="752" y="1134" type="line"/>
      <point x="752" y="681" type="line"/>
      <point x="723" y="651"/>
      <point x="665" y="630"/>
      <point x="594" y="630" type="curve" smooth="yes"/>
      <point x="461" y="630"/>
      <point x="438" y="689"/>
      <point x="438" y="913" type="curve" smooth="yes"/>
      <point x="438" y="1134" type="line"/>
      <point x="537" y="1158" type="line"/>
      <point x="537" y="1292" type="line"/>
      <point x="22" y="1292" type="line"/>
      <point x="22" y="1158" type="line"/>
      <point x="110" y="1132" type="line"/>
      <point x="110" y="844" type="line" smooth="yes"/>
      <point x="110" y="568"/>
      <point x="210" y="454"/>
      <point x="478" y="454" type="curve" smooth="yes"/>
      <point x="567" y="454"/>
      <point x="677" y="476"/>
    </contour>
  </outline>
</glyph>
<glyph name="chedescender-cy.sc" format="1">
  <advance width="1277"/>
  <outline>
    <contour>
      <point x="1239" y="147" type="curve"/>
      <point x="1080" y="147" type="line"/>
      <point x="1080" y="1133" type="line"/>
      <point x="1199" y="1158" type="line"/>
      <point x="1199" y="1292" type="line"/>
      <point x="633" y="1292" type="line"/>
      <point x="633" y="1158" type="line"/>
      <point x="753" y="1134" type="line"/>
      <point x="753" y="681" type="line"/>
      <point x="722" y="651"/>
      <point x="665" y="630"/>
      <point x="594" y="630" type="curve" smooth="yes"/>
      <point x="460" y="630"/>
      <point x="439" y="689"/>
      <point x="439" y="913" type="curve" smooth="yes"/>
      <point x="439" y="1134" type="line"/>
      <point x="537" y="1158" type="line"/>
      <point x="537" y="1292" type="line"/>
      <point x="23" y="1292" type="line"/>
      <point x="23" y="1158" type="line"/>
      <point x="110" y="1132" type="line"/>
      <point x="110" y="844" type="line" smooth="yes"/>
      <point x="110" y="568"/>
      <point x="209" y="454"/>
      <point x="479" y="454" type="curve" smooth="yes"/>
      <point x="567" y="454"/>
      <point x="678" y="476"/>
      <point x="753" y="528" type="curve"/>
      <point x="753" y="147" type="line"/>
      <point x="578" y="126" type="line"/>
      <point x="578" y="0" type="line"/>
      <point x="972" y="0" type="line"/>
      <point x="995" y="-52"/>
      <point x="1029" y="-307"/>
      <point x="1031" y="-366" type="curve"/>
      <point x="1198" y="-366" type="line"/>
      <point x="1207" y="-329"/>
      <point x="1240" y="12"/>
    </contour>
  </outline>
</glyph>
<glyph name="chekhakassian-cy.sc" format="1">
  <advance width="1247"/>
  <outline>
    <contour>
      <point x="569" y="-144" type="move" name="mark0"/>
    </contour>
    <contour>
      <point x="822" y="0" type="curve"/>
      <point x="1199" y="0" type="line"/>
      <point x="1199" y="124" type="line"/>
      <point x="1080" y="147" type="line"/>
      <point x="1080" y="1133" type="line"/>
      <point x="1199" y="1158" type="line"/>
      <point x="1199" y="1292" type="line"/>
      <point x="633" y="1292" type="line"/>
      <point x="633" y="1158" type="line"/>
      <point x="753" y="1134" type="line"/>
      <point x="753" y="681" type="line"/>
      <point x="722" y="651"/>
      <point x="665" y="630"/>
      <point x="594" y="630" type="curve" smooth="yes"/>
      <point x="460" y="630"/>
      <point x="439" y="689"/>
      <point x="439" y="913" type="curve" smooth="yes"/>
      <point x="439" y="1134" type="line"/>
      <point x="537" y="1158" type="line"/>
      <point x="537" y="1292" type="line"/>
      <point x="23" y="1292" type="line"/>
      <point x="23" y="1158" type="line"/>
      <point x="110" y="1132" type="line"/>
      <point x="110" y="844" type="line" smooth="yes"/>
      <point x="110" y="568"/>
      <point x="209" y="454"/>
      <point x="479" y="454" type="curve" smooth="yes"/>
      <point x="567" y="454"/>
      <point x="678" y="476"/>
      <point x="753" y="528" type="curve"/>
      <point x="753" y="156" type="line"/>
      <point x="574" y="156" type="line"/>
      <point x="558" y="-1"/>
      <point x="549" y="-289"/>
      <point x="549" y="-366" type="curve"/>
      <point x="724" y="-366" type="line"/>
      <point x="733" y="-321"/>
      <point x="792" y="-68"/>
    </contour>
  </outline>
</glyph>
<glyph name="cheverticalstroke-cy.sc" format="1">
  <advance width="1323"/>
  <outline>
    <contour>
      <point x="645" y="-144" type="move" name="mark0"/>
    </contour>
    <contour>
      <point x="830" y="529" type="curve"/>
      <point x="830" y="156" type="line"/>
      <point x="642" y="132" type="line"/>
      <point x="642" y="0" type="line"/>
      <point x="1278" y="0" type="line"/>
      <point x="1278" y="124" type="line"/>
      <point x="1157" y="147" type="line"/>
      <point x="1157" y="1133" type="line"/>
      <point x="1278" y="1158" type="line"/>
      <point x="1278" y="1292" type="line"/>
      <point x="695" y="1292" type="line"/>
      <point x="695" y="1165" type="line"/>
      <point x="830" y="1136" type="line"/>
      <point x="830" y="682" type="line"/>
      <point x="810" y="665"/>
      <point x="761" y="649"/>
      <point x="696" y="638" type="curve"/>
      <point x="696" y="891" type="line"/>
      <point x="567" y="891" type="line"/>
      <point x="567" y="630" type="line"/>
      <point x="443" y="630"/>
      <point x="438" y="694"/>
      <point x="438" y="913" type="curve" smooth="yes"/>
      <point x="438" y="1135" type="line"/>
      <point x="562" y="1163" type="line"/>
      <point x="562" y="1292" type="line"/>
      <point x="26" y="1292" type="line"/>
      <point x="26" y="1163" type="line"/>
      <point x="112" y="1138" type="line"/>
      <point x="112" y="844" type="line" smooth="yes"/>
      <point x="112" y="566"/>
      <point x="230" y="454"/>
      <point x="513" y="454" type="curve" smooth="yes"/>
      <point x="530" y="454"/>
      <point x="548" y="454"/>
      <point x="567" y="456" type="curve"/>
      <point x="567" y="286" type="line"/>
      <point x="696" y="286" type="line"/>
      <point x="696" y="477" type="line"/>
      <point x="747" y="490"/>
      <point x="795" y="508"/>
    </contour>
  </outline>
</glyph>
<glyph name="de-cy.loclBGR.sc" format="1">
  <advance width="1300"/>
  <outline>
    <contour>
      <point x="1281" y="147" type="curve"/>
      <point x="1143" y="147" type="line"/>
      <point x="842" y="1297" type="line"/>
      <point x="495" y="1297" type="line"/>
      <point x="158" y="147" type="line"/>
      <point x="32" y="147" type="line"/>
      <point x="17" y="-17"/>
      <point x="22" y="-297"/>
      <point x="19" y="-370" type="curve"/>
      <point x="195" y="-370" type="line"/>
      <point x="206" y="-256"/>
      <point x="252" y="-39"/>
      <point x="288" y="0" type="curve"/>
      <point x="1013" y="0" type="line"/>
      <point x="1037" y="-37"/>
      <point x="1085" y="-306"/>
      <point x="1087" y="-366" type="curve"/>
      <point x="1256" y="-366" type="line"/>
      <point x="1263" y="-335"/>
      <point x="1281" y="24"/>
    </contour>
    <contour>
      <point x="606" y="1092" type="line"/>
      <point x="625" y="981" type="line"/>
      <point x="783" y="147" type="line"/>
      <point x="402" y="147" type="line"/>
      <point x="589" y="982" type="line"/>
    </contour>
  </outline>
</glyph>
<glyph name="dze-cy.sc" format="1">
  <advance width="1005"/>
  <outline>
    <contour>
      <point x="553" y="1287" type="move" name="top"/>
    </contour>
    <contour>
      <point x="499" y="-144" type="move" name="mark0"/>
    </contour>
    <contour>
      <point x="504" y="0" type="move" name="bottom"/>
    </contour>
    <contour>
      <point x="500" y="-20" type="curve" smooth="yes"/>
      <point x="894" y="-20"/>
      <point x="976" y="212"/>
      <point x="976" y="380" type="curve" smooth="yes"/>
      <point x="976" y="593"/>
      <point x="806" y="699"/>
      <point x="687" y="761" type="curve" smooth="yes"/>
      <point x="539" y="841"/>
      <point x="398" y="908"/>
      <point x="398" y="1035" type="curve" smooth="yes"/>
      <point x="398" y="1109"/>
      <point x="437" y="1183"/>
      <point x="551" y="1183" type="curve" smooth="yes"/>
      <point x="617" y="1183"/>
      <point x="664" y="1162"/>
      <point x="675" y="1145" type="curve"/>
      <point x="713" y="932" type="line"/>
      <point x="884" y="932" type="line"/>
      <point x="894" y="1248" type="line"/>
      <point x="847" y="1251"/>
      <point x="735" y="1311"/>
      <point x="532" y="1311" type="curve" smooth="yes"/>
      <point x="213" y="1311"/>
      <point x="88" y="1130"/>
      <point x="88" y="946" type="curve" smooth="yes"/>
      <point x="88" y="701"/>
      <point x="264" y="584"/>
      <point x="384" y="522" type="curve" smooth="yes"/>
      <point x="554" y="438"/>
      <point x="652" y="377"/>
      <point x="652" y="270" type="curve" smooth="yes"/>
      <point x="652" y="175"/>
      <point x="599" y="113"/>
      <point x="478" y="113" type="curve" smooth="yes"/>
      <point x="392" y="113"/>
      <point x="336" y="141"/>
      <point x="319" y="167" type="curve"/>
      <point x="274" y="385" type="line"/>
      <point x="100" y="385" type="line"/>
      <point x="85" y="56" type="line"/>
      <point x="140" y="53"/>
      <point x="294" y="-20"/>
    </contour>
  </outline>
</glyph>
<glyph name="dzeabkhasian-cy.sc" format="1">
  <advance width="1073"/>
  <outline>
    <contour>
      <point x="658" y="763" type="curve"/>
      <point x="993" y="1151" type="line"/>
      <point x="993" y="1292" type="line"/>
      <point x="86" y="1292" type="line"/>
      <point x="105" y="917" type="line"/>
      <point x="296" y="917" type="line"/>
      <point x="337" y="1121" type="line"/>
      <point x="664" y="1128" type="line"/>
      <point x="574" y="997"/>
      <point x="480" y="848"/>
      <point x="389" y="716" type="curve"/>
      <point x="431" y="626" type="line"/>
      <point x="456" y="630"/>
      <point x="480" y="630"/>
      <point x="499" y="630" type="curve"/>
      <point x="671" y="627"/>
      <point x="681" y="504"/>
      <point x="681" y="379" type="curve" smooth="yes"/>
      <point x="681" y="208"/>
      <point x="586" y="107"/>
      <point x="471" y="107" type="curve" smooth="yes"/>
      <point x="397" y="107"/>
      <point x="357" y="140"/>
      <point x="351" y="154" type="curve"/>
      <point x="289" y="401" type="line"/>
      <point x="110" y="401" type="line"/>
      <point x="70" y="68" type="line"/>
      <point x="127" y="38"/>
      <point x="317" y="-19"/>
      <point x="485" y="-19" type="curve" smooth="yes"/>
      <point x="931" y="-19"/>
      <point x="1040" y="196"/>
      <point x="1040" y="435" type="curve" smooth="yes"/>
      <point x="1040" y="619"/>
      <point x="945" y="766"/>
      <point x="711" y="766" type="curve" smooth="yes"/>
      <point x="695" y="766"/>
      <point x="677" y="764"/>
    </contour>
  </outline>
</glyph>
<glyph name="e-cy.sc" format="1">
  <advance width="1122"/>
  <outline>
    <contour>
      <point x="612" y="0" type="move" name="mark0"/>
    </contour>
    <contour>
      <point x="1055" y="46" type="curve"/>
      <point x="1053" y="364" type="line"/>
      <point x="873" y="366" type="line"/>
      <point x="804" y="162" type="line"/>
      <point x="787" y="141"/>
      <point x="750" y="110"/>
      <point x="658" y="110" type="curve" smooth="yes"/>
      <point x="508" y="110"/>
      <point x="421" y="316"/>
      <point x="403" y="573" type="curve"/>
      <point x="821" y="560" type="line"/>
      <point x="821" y="747" type="line"/>
      <point x="400" y="733" type="line"/>
      <point x="413" y="1050"/>
      <point x="526" y="1181"/>
      <point x="679" y="1181" type="curve" smooth="yes"/>
      <point x="746" y="1181"/>
      <point x="756" y="1156"/>
      <point x="775" y="1131" type="curve"/>
      <point x="821" y="885" type="line"/>
      <point x="1037" y="885" type="line"/>
      <point x="1058" y="1253" type="line"/>
      <point x="972" y="1262"/>
      <point x="859" y="1306"/>
      <point x="696" y="1306" type="curve" smooth="yes"/>
      <point x="290" y="1306"/>
      <point x="39" y="1059"/>
      <point x="39" y="635" type="curve" smooth="yes"/>
      <point x="39" y="250"/>
      <point x="238" y="-20"/>
      <point x="626" y="-20" type="curve" smooth="yes"/>
      <point x="854" y="-20"/>
      <point x="959" y="41"/>
    </contour>
  </outline>
</glyph>
<glyph name="ef-cy.loclBGR.sc" format="1">
  <advance width="1603"/>
  <outline>
    <contour>
      <point x="959" y="1168" type="curve"/>
      <point x="959" y="1235" type="line"/>
      <point x="1085" y="1262" type="line"/>
      <point x="1085" y="1390" type="line"/>
      <point x="512" y="1390" type="line"/>
      <point x="512" y="1262" type="line"/>
      <point x="643" y="1235" type="line"/>
      <point x="643" y="1167" type="line"/>
      <point x="206" y="1138"/>
      <point x="40" y="912"/>
      <point x="40" y="648" type="curve" smooth="yes"/>
      <point x="40" y="403"/>
      <point x="140" y="137"/>
      <point x="643" y="119" type="curve"/>
      <point x="643" y="39" type="line"/>
      <point x="514" y="20" type="line"/>
      <point x="514" y="-111" type="line"/>
      <point x="1088" y="-111" type="line"/>
      <point x="1088" y="19" type="line"/>
      <point x="959" y="35" type="line"/>
      <point x="959" y="116" type="line"/>
      <point x="1362" y="141"/>
      <point x="1563" y="391"/>
      <point x="1563" y="655" type="curve" smooth="yes"/>
      <point x="1563" y="910"/>
      <point x="1469" y="1150"/>
    </contour>
    <contour>
      <point x="643" y="1053" type="curve"/>
      <point x="643" y="233" type="line"/>
      <point x="430" y="265"/>
      <point x="377" y="494"/>
      <point x="377" y="656" type="curve" smooth="yes"/>
      <point x="377" y="848"/>
      <point x="421" y="1020"/>
    </contour>
    <contour>
      <point x="959" y="227" type="curve"/>
      <point x="959" y="1050" type="line"/>
      <point x="1177" y="1017"/>
      <point x="1227" y="814"/>
      <point x="1227" y="653" type="curve" smooth="yes"/>
      <point x="1227" y="463"/>
      <point x="1183" y="264"/>
    </contour>
  </outline>
</glyph>
<glyph name="ef-cy.sc" format="1">
  <advance width="1498"/>
  <outline>
    <contour>
      <point x="753" y="-144" type="move" name="mark0"/>
    </contour>
    <contour>
      <point x="906" y="1075" type="curve"/>
      <point x="906" y="1176" type="line"/>
      <point x="1032" y="1203" type="line"/>
      <point x="1032" y="1331" type="line"/>
      <point x="460" y="1331" type="line"/>
      <point x="460" y="1203" type="line"/>
      <point x="591" y="1176" type="line"/>
      <point x="591" y="1074" type="line"/>
      <point x="164" y="1067"/>
      <point x="27" y="899"/>
      <point x="27" y="655" type="curve" smooth="yes"/>
      <point x="27" y="425"/>
      <point x="111" y="222"/>
      <point x="591" y="229" type="curve"/>
      <point x="591" y="114" type="line"/>
      <point x="461" y="95" type="line"/>
      <point x="461" y="-36" type="line"/>
      <point x="1036" y="-36" type="line"/>
      <point x="1036" y="96" type="line"/>
      <point x="906" y="110" type="line"/>
      <point x="906" y="228" type="line"/>
      <point x="1285" y="224"/>
      <point x="1470" y="394"/>
      <point x="1470" y="646" type="curve" smooth="yes"/>
      <point x="1470" y="884"/>
      <point x="1391" y="1078"/>
    </contour>
    <contour>
      <point x="591" y="970" type="curve"/>
      <point x="591" y="334" type="line"/>
      <point x="401" y="362"/>
      <point x="364" y="510"/>
      <point x="364" y="663" type="curve" smooth="yes"/>
      <point x="364" y="840"/>
      <point x="392" y="957"/>
    </contour>
    <contour>
      <point x="906" y="328" type="curve"/>
      <point x="906" y="966" type="line"/>
      <point x="1101" y="936"/>
      <point x="1133" y="792"/>
      <point x="1133" y="644" type="curve" smooth="yes"/>
      <point x="1133" y="464"/>
      <point x="1105" y="343"/>
    </contour>
  </outline>
</glyph>
<glyph name="el-cy.loclBGR.sc" format="1">
  <advance width="1258"/>
  <outline>
    <contour>
      <point x="459" y="1297" type="line"/>
      <point x="110" y="147" type="line"/>
      <point x="20" y="126" type="line"/>
      <point x="22" y="0" type="line"/>
      <point x="477" y="0" type="line"/>
      <point x="477" y="126" type="line"/>
      <point x="357" y="142" type="line"/>
      <point x="552" y="982" type="line"/>
      <point x="569" y="1092" type="line"/>
      <point x="588" y="981" type="line"/>
      <point x="792" y="145" type="line"/>
      <point x="687" y="126" type="line"/>
      <point x="687" y="0" type="line"/>
      <point x="1238" y="0" type="line"/>
      <point x="1238" y="126" type="line"/>
      <point x="1154" y="145" type="line"/>
      <point x="805" y="1297" type="line"/>
    </contour>
  </outline>
</glyph>
<glyph name="el-cy.sc" format="1">
  <advance width="1305"/>
  <outline>
    <contour>
      <point x="502" y="-144" type="move" name="mark0"/>
    </contour>
    <contour>
      <point x="505" y="1019" type="curve" smooth="yes"/>
      <point x="505" y="1131" type="line"/>
      <point x="781" y="1131" type="line"/>
      <point x="781" y="147" type="line"/>
      <point x="610" y="126" type="line"/>
      <point x="610" y="0" type="line"/>
      <point x="1258" y="0" type="line"/>
      <point x="1258" y="126" type="line"/>
      <point x="1104" y="145" type="line"/>
      <point x="1104" y="1133" type="line"/>
      <point x="1252" y="1158" type="line"/>
      <point x="1252" y="1292" type="line"/>
      <point x="153" y="1292" type="line"/>
      <point x="153" y="1158" type="line"/>
      <point x="362" y="1133" type="line"/>
      <point x="362" y="1072" type="line" smooth="yes"/>
      <point x="362" y="594"/>
      <point x="324" y="368"/>
      <point x="273" y="246" type="curve"/>
      <point x="244" y="183"/>
      <point x="219" y="170"/>
      <point x="172" y="170" type="curve" smooth="yes"/>
      <point x="117" y="170"/>
      <point x="87" y="172"/>
      <point x="43" y="176" type="curve"/>
      <point x="64" y="0" type="line"/>
      <point x="101" y="-8"/>
      <point x="146" y="-13"/>
      <point x="202" y="-13" type="curve" smooth="yes"/>
      <point x="290" y="-13"/>
      <point x="355" y="34"/>
      <point x="399" y="127" type="curve" smooth="yes"/>
      <point x="476" y="293"/>
      <point x="505" y="664"/>
    </contour>
  </outline>
</glyph>
<glyph name="eldescender-cy.sc" format="1">
  <advance width="1310"/>
  <outline>
    <contour>
      <point x="1284" y="147" type="curve"/>
      <point x="1104" y="147" type="line"/>
      <point x="1104" y="1133" type="line"/>
      <point x="1252" y="1158" type="line"/>
      <point x="1252" y="1292" type="line"/>
      <point x="153" y="1292" type="line"/>
      <point x="153" y="1158" type="line"/>
      <point x="362" y="1133" type="line"/>
      <point x="362" y="1072" type="line" smooth="yes"/>
      <point x="362" y="594"/>
      <point x="324" y="368"/>
      <point x="273" y="246" type="curve"/>
      <point x="244" y="183"/>
      <point x="219" y="170"/>
      <point x="172" y="170" type="curve" smooth="yes"/>
      <point x="117" y="170"/>
      <point x="87" y="172"/>
      <point x="43" y="176" type="curve"/>
      <point x="64" y="0" type="line"/>
      <point x="101" y="-8"/>
      <point x="146" y="-13"/>
      <point x="202" y="-13" type="curve" smooth="yes"/>
      <point x="290" y="-13"/>
      <point x="355" y="34"/>
      <point x="399" y="127" type="curve" smooth="yes"/>
      <point x="476" y="293"/>
      <point x="505" y="664"/>
      <point x="505" y="1019" type="curve" smooth="yes"/>
      <point x="505" y="1131" type="line"/>
      <point x="781" y="1131" type="line"/>
      <point x="781" y="147" type="line"/>
      <point x="610" y="126" type="line"/>
      <point x="610" y="0" type="line"/>
      <point x="1015" y="0" type="line"/>
      <point x="1037" y="-51"/>
      <point x="1072" y="-306"/>
      <point x="1073" y="-366" type="curve"/>
      <point x="1242" y="-366" type="line"/>
      <point x="1250" y="-335"/>
      <point x="1284" y="21"/>
    </contour>
  </outline>
</glyph>
<glyph name="elhook-cy.sc" format="1">
  <advance width="1266"/>
  <outline>
    <contour>
      <point x="1104" y="478" type="curve" smooth="yes"/>
      <point x="1104" y="1133" type="line"/>
      <point x="1252" y="1158" type="line"/>
      <point x="1252" y="1292" type="line"/>
      <point x="153" y="1292" type="line"/>
      <point x="153" y="1158" type="line"/>
      <point x="362" y="1133" type="line"/>
      <point x="362" y="1072" type="line" smooth="yes"/>
      <point x="362" y="594"/>
      <point x="324" y="368"/>
      <point x="273" y="246" type="curve"/>
      <point x="244" y="183"/>
      <point x="219" y="170"/>
      <point x="172" y="170" type="curve" smooth="yes"/>
      <point x="117" y="170"/>
      <point x="87" y="172"/>
      <point x="43" y="176" type="curve"/>
      <point x="64" y="0" type="line"/>
      <point x="101" y="-8"/>
      <point x="146" y="-13"/>
      <point x="202" y="-13" type="curve" smooth="yes"/>
      <point x="290" y="-13"/>
      <point x="355" y="34"/>
      <point x="399" y="127" type="curve" smooth="yes"/>
      <point x="476" y="293"/>
      <point x="505" y="664"/>
      <point x="505" y="1019" type="curve" smooth="yes"/>
      <point x="505" y="1131" type="line"/>
      <point x="780" y="1131" type="line"/>
      <point x="779" y="300" type="line" smooth="yes"/>
      <point x="779" y="135"/>
      <point x="764" y="58"/>
      <point x="746" y="-10" type="curve" smooth="yes"/>
      <point x="701" y="-140"/>
      <point x="620" y="-207"/>
      <point x="552" y="-235" type="curve"/>
      <point x="624" y="-347" type="line"/>
      <point x="888" y="-305"/>
      <point x="1029" y="-155"/>
      <point x="1079" y="22" type="curve"/>
      <point x="1100" y="97"/>
      <point x="1104" y="286"/>
    </contour>
  </outline>
</glyph>
<glyph name="em-cy.sc" format="1">
  <advance width="1707"/>
  <outline>
    <contour>
      <point x="848" y="1287" type="move" name="top"/>
    </contour>
    <contour>
      <point x="728" y="-144" type="move" name="mark0"/>
    </contour>
    <contour>
      <point x="848" y="0" type="move" name="bottom"/>
    </contour>
    <contour>
      <point x="123" y="145" type="line"/>
      <point x="3" y="126" type="line"/>
      <point x="3" y="0" type="line"/>
      <point x="479" y="0" type="line"/>
      <point x="479" y="126" type="line"/>
      <point x="312" y="147" type="line"/>
      <point x="373" y="884" type="line"/>
      <point x="398" y="1180" type="line"/>
      <point x="457" y="887" type="line"/>
      <point x="661" y="45" type="line"/>
      <point x="923" y="45" type="line"/>
      <point x="1115" y="888" type="line"/>
      <point x="1167" y="1179" type="line"/>
      <point x="1193" y="884" type="line"/>
      <point x="1251" y="147" type="line"/>
      <point x="1118" y="126" type="line"/>
      <point x="1118" y="0" type="line"/>
      <point x="1704" y="0" type="line"/>
      <point x="1704" y="126" type="line"/>
      <point x="1587" y="147" type="line"/>
      <point x="1457" y="1133" type="line"/>
      <point x="1633" y="1158" type="line"/>
      <point x="1633" y="1292" type="line"/>
      <point x="1032" y="1292" type="line"/>
      <point x="885" y="587" type="line"/>
      <point x="858" y="407" type="line"/>
      <point x="829" y="587" type="line"/>
      <point x="689" y="1292" type="line"/>
      <point x="71" y="1292" type="line"/>
      <point x="71" y="1158" type="line"/>
      <point x="242" y="1133" type="line"/>
    </contour>
  </outline>
</glyph>
<glyph name="emtail-cy.sc" format="1">
  <advance width="1715"/>
  <outline>
    <contour>
      <point x="717" y="-144" type="move" name="mark0"/>
    </contour>
    <contour>
      <point x="1731" y="0" type="curve"/>
      <point x="1731" y="131" type="line"/>
      <point x="1599" y="131" type="line"/>
      <point x="1455" y="1133" type="line"/>
      <point x="1627" y="1158" type="line"/>
      <point x="1627" y="1292" type="line"/>
      <point x="1027" y="1292" type="line"/>
      <point x="892" y="531" type="line"/>
      <point x="867" y="350" type="line"/>
      <point x="838" y="531" type="line"/>
      <point x="682" y="1292" type="line"/>
      <point x="101" y="1292" type="line"/>
      <point x="101" y="1158" type="line"/>
      <point x="249" y="1133" type="line"/>
      <point x="122" y="147" type="line"/>
      <point x="-11" y="126" type="line"/>
      <point x="-11" y="0" type="line"/>
      <point x="476" y="0" type="line"/>
      <point x="476" y="126" type="line"/>
      <point x="312" y="147" type="line"/>
      <point x="374" y="884" type="line"/>
      <point x="394" y="1180" type="line"/>
      <point x="449" y="887" type="line"/>
      <point x="669" y="-14" type="line"/>
      <point x="930" y="-14" type="line"/>
      <point x="1109" y="920" type="line"/>
      <point x="1151" y="1168" type="line"/>
      <point x="1181" y="884" type="line"/>
      <point x="1254" y="147" type="line"/>
      <point x="1125" y="126" type="line"/>
      <point x="1125" y="0" type="line"/>
      <point x="1486" y="0" type="line"/>
      <point x="1469" y="-74"/>
      <point x="1415" y="-277"/>
      <point x="1389" y="-370" type="curve"/>
      <point x="1555" y="-370" type="line"/>
      <point x="1581" y="-316"/>
      <point x="1669" y="-137"/>
    </contour>
  </outline>
</glyph>
<glyph name="en-cy.loclBGR.sc" format="1">
  <advance width="1383"/>
  <outline>
    <contour>
      <point x="172" y="145" type="line"/>
      <point x="62" y="126" type="line"/>
      <point x="62" y="0" type="line"/>
      <point x="627" y="0" type="line"/>
      <point x="627" y="126" type="line"/>
      <point x="497" y="144" type="line"/>
      <point x="497" y="574" type="line"/>
      <point x="886" y="574" type="line"/>
      <point x="886" y="146" type="line"/>
      <point x="768" y="126" type="line"/>
      <point x="768" y="0" type="line"/>
      <point x="1321" y="0" type="line"/>
      <point x="1321" y="126" type="line"/>
      <point x="1209" y="145" type="line"/>
      <point x="1209" y="1134" type="line"/>
      <point x="1320" y="1158" type="line"/>
      <point x="1320" y="1292" type="line"/>
      <point x="768" y="1292" type="line"/>
      <point x="768" y="1158" type="line"/>
      <point x="886" y="1132" type="line"/>
      <point x="886" y="740" type="line"/>
      <point x="497" y="740" type="line"/>
      <point x="497" y="1134" type="line"/>
      <point x="627" y="1158" type="line"/>
      <point x="627" y="1292" type="line"/>
      <point x="62" y="1292" type="line"/>
      <point x="62" y="1158" type="line"/>
      <point x="172" y="1134" type="line"/>
    </contour>
  </outline>
</glyph>
<glyph name="en-cy.sc" format="1">
  <advance width="1377"/>
  <outline>
    <contour>
      <point x="695" y="1287" type="move" name="top"/>
    </contour>
    <contour>
      <point x="1339" y="0" type="move" name="bottomright"/>
    </contour>
    <contour>
      <point x="696" y="0" type="move" name="bottom"/>
    </contour>
    <contour>
      <point x="168" y="145" type="line"/>
      <point x="58" y="126" type="line"/>
      <point x="58" y="0" type="line"/>
      <point x="626" y="0" type="line"/>
      <point x="626" y="126" type="line"/>
      <point x="496" y="145" type="line"/>
      <point x="496" y="574" type="line"/>
      <point x="880" y="574" type="line"/>
      <point x="880" y="147" type="line"/>
      <point x="762" y="126" type="line"/>
      <point x="762" y="0" type="line"/>
      <point x="1318" y="0" type="line"/>
      <point x="1318" y="126" type="line"/>
      <point x="1206" y="145" type="line"/>
      <point x="1206" y="1134" type="line"/>
      <point x="1317" y="1158" type="line"/>
      <point x="1317" y="1292" type="line"/>
      <point x="763" y="1292" type="line"/>
      <point x="763" y="1158" type="line"/>
      <point x="880" y="1133" type="line"/>
      <point x="880" y="739" type="line"/>
      <point x="496" y="739" type="line"/>
      <point x="496" y="1134" type="line"/>
      <point x="625" y="1158" type="line"/>
      <point x="625" y="1292" type="line"/>
      <point x="59" y="1292" type="line"/>
      <point x="59" y="1158" type="line"/>
      <point x="168" y="1134" type="line"/>
    </contour>
  </outline>
</glyph>
<glyph name="endescender-cy.sc" format="1">
  <advance width="1380"/>
  <outline>
    <contour>
      <point x="618" y="-144" type="move" name="mark0"/>
    </contour>
    <contour>
      <point x="1373" y="147" type="curve"/>
      <point x="1206" y="147" type="line"/>
      <point x="1206" y="1134" type="line"/>
      <point x="1322" y="1158" type="line"/>
      <point x="1322" y="1292" type="line"/>
      <point x="761" y="1292" type="line"/>
      <point x="761" y="1158" type="line"/>
      <point x="880" y="1133" type="line"/>
      <point x="880" y="739" type="line"/>
      <point x="496" y="739" type="line"/>
      <point x="496" y="1134" type="line"/>
      <point x="625" y="1158" type="line"/>
      <point x="625" y="1292" type="line"/>
      <point x="59" y="1292" type="line"/>
      <point x="59" y="1158" type="line"/>
      <point x="168" y="1134" type="line"/>
      <point x="168" y="145" type="line"/>
      <point x="57" y="126" type="line"/>
      <point x="57" y="0" type="line"/>
      <point x="626" y="0" type="line"/>
      <point x="626" y="126" type="line"/>
      <point x="496" y="145" type="line"/>
      <point x="496" y="574" type="line"/>
      <point x="880" y="574" type="line"/>
      <point x="880" y="147" type="line"/>
      <point x="760" y="126" type="line"/>
      <point x="760" y="0" type="line"/>
      <point x="1104" y="0" type="line"/>
      <point x="1130" y="-53"/>
      <point x="1162" y="-313"/>
      <point x="1165" y="-366" type="curve"/>
      <point x="1333" y="-366" type="line"/>
      <point x="1341" y="-334"/>
      <point x="1373" y="13"/>
    </contour>
  </outline>
</glyph>
<glyph name="enghe-cy.sc" format="1">
  <advance width="1643"/>
  <outline>
    <contour>
      <point x="51" y="1292" type="line"/>
      <point x="51" y="1158" type="line"/>
      <point x="168" y="1134" type="line"/>
      <point x="168" y="145" type="line"/>
      <point x="49" y="126" type="line"/>
      <point x="49" y="0" type="line"/>
      <point x="625" y="0" type="line"/>
      <point x="625" y="126" type="line"/>
      <point x="496" y="147" type="line"/>
      <point x="496" y="574" type="line"/>
      <point x="878" y="574" type="line"/>
      <point x="878" y="147" type="line"/>
      <point x="760" y="126" type="line"/>
      <point x="760" y="0" type="line"/>
      <point x="1343" y="0" type="line"/>
      <point x="1343" y="126" type="line"/>
      <point x="1204" y="147" type="line"/>
      <point x="1204" y="1153" type="line"/>
      <point x="1365" y="1132" type="line"/>
      <point x="1435" y="764" type="line"/>
      <point x="1616" y="764" type="line"/>
      <point x="1587" y="1292" type="line"/>
      <point x="759" y="1292" type="line"/>
      <point x="759" y="1158" type="line"/>
      <point x="878" y="1133" type="line"/>
      <point x="878" y="739" type="line"/>
      <point x="496" y="739" type="line"/>
      <point x="496" y="1133" type="line"/>
      <point x="625" y="1158" type="line"/>
      <point x="625" y="1292" type="line"/>
    </contour>
  </outline>
</glyph>
<glyph name="enlefthook-cy.sc" format="1">
  <advance width="1368"/>
  <outline>
    <contour>
      <point x="516" y="478" type="curve" smooth="yes"/>
      <point x="516" y="574" type="line"/>
      <point x="887" y="574" type="line"/>
      <point x="887" y="146" type="line"/>
      <point x="767" y="126" type="line"/>
      <point x="767" y="0" type="line"/>
      <point x="1323" y="0" type="line"/>
      <point x="1323" y="126" type="line"/>
      <point x="1211" y="144" type="line"/>
      <point x="1211" y="1134" type="line"/>
      <point x="1323" y="1158" type="line"/>
      <point x="1323" y="1292" type="line"/>
      <point x="769" y="1292" type="line"/>
      <point x="769" y="1158" type="line"/>
      <point x="887" y="1132" type="line"/>
      <point x="887" y="740" type="line"/>
      <point x="516" y="740" type="line"/>
      <point x="516" y="1134" type="line"/>
      <point x="645" y="1158" type="line"/>
      <point x="645" y="1292" type="line"/>
      <point x="80" y="1292" type="line"/>
      <point x="80" y="1158" type="line"/>
      <point x="191" y="1134" type="line"/>
      <point x="191" y="300" type="line" smooth="yes"/>
      <point x="191" y="147"/>
      <point x="177" y="55"/>
      <point x="159" y="-9" type="curve" smooth="yes"/>
      <point x="113" y="-138"/>
      <point x="32" y="-207"/>
      <point x="-36" y="-235" type="curve"/>
      <point x="36" y="-347" type="line"/>
      <point x="296" y="-304"/>
      <point x="437" y="-160"/>
      <point x="490" y="20" type="curve"/>
      <point x="514" y="102"/>
      <point x="516" y="286"/>
    </contour>
  </outline>
</glyph>
<glyph name="entail-cy.sc" format="1">
  <advance width="1369"/>
  <outline>
    <contour>
      <point x="1357" y="0" type="curve"/>
      <point x="1357" y="148" type="line"/>
      <point x="1206" y="148" type="line"/>
      <point x="1206" y="1134" type="line"/>
      <point x="1324" y="1158" type="line"/>
      <point x="1324" y="1292" type="line"/>
      <point x="759" y="1292" type="line"/>
      <point x="759" y="1158" type="line"/>
      <point x="878" y="1133" type="line"/>
      <point x="878" y="739" type="line"/>
      <point x="497" y="739" type="line"/>
      <point x="497" y="1133" type="line"/>
      <point x="627" y="1158" type="line"/>
      <point x="627" y="1292" type="line"/>
      <point x="52" y="1292" type="line"/>
      <point x="52" y="1158" type="line"/>
      <point x="168" y="1133" type="line"/>
      <point x="168" y="145" type="line"/>
      <point x="51" y="127" type="line"/>
      <point x="51" y="0" type="line"/>
      <point x="627" y="0" type="line"/>
      <point x="627" y="127" type="line"/>
      <point x="497" y="147" type="line"/>
      <point x="497" y="574" type="line"/>
      <point x="878" y="574" type="line"/>
      <point x="878" y="147" type="line"/>
      <point x="760" y="127" type="line"/>
      <point x="760" y="0" type="line"/>
      <point x="1119" y="0" type="line"/>
      <point x="1093" y="-72"/>
      <point x="1033" y="-248"/>
      <point x="989" y="-363" type="curve"/>
      <point x="1164" y="-363" type="line"/>
      <point x="1192" y="-311"/>
      <point x="1310" y="-95"/>
    </contour>
  </outline>
</glyph>
<glyph name="er-cy.sc" format="1">
  <advance width="1106"/>
  <outline>
    <contour>
      <point x="618" y="1287" type="move" name="top"/>
    </contour>
    <contour>
      <point x="549" y="-144" type="move" name="mark0"/>
    </contour>
    <contour>
      <point x="366" y="0" type="move" name="bottom"/>
    </contour>
    <contour>
      <point x="168" y="145" type="line"/>
      <point x="51" y="126" type="line"/>
      <point x="51" y="0" type="line"/>
      <point x="706" y="0" type="line"/>
      <point x="706" y="126" type="line"/>
      <point x="497" y="145" type="line"/>
      <point x="497" y="436" type="line"/>
      <point x="515" y="434"/>
      <point x="553" y="431"/>
      <point x="588" y="431" type="curve" smooth="yes"/>
      <point x="920" y="431"/>
      <point x="1083" y="611"/>
      <point x="1083" y="908" type="curve" smooth="yes"/>
      <point x="1083" y="1165"/>
      <point x="972" y="1300"/>
      <point x="608" y="1301" type="curve" smooth="yes"/>
      <point x="489" y="1303"/>
      <point x="402" y="1292"/>
      <point x="341" y="1292" type="curve" smooth="yes"/>
      <point x="55" y="1292" type="line"/>
      <point x="55" y="1158" type="line"/>
      <point x="168" y="1133" type="line"/>
    </contour>
    <contour>
      <point x="496" y="566" type="curve"/>
      <point x="496" y="1166" type="line"/>
      <point x="514" y="1171"/>
      <point x="521" y="1176"/>
      <point x="577" y="1176" type="curve" smooth="yes"/>
      <point x="689" y="1176"/>
      <point x="752" y="1091"/>
      <point x="752" y="900" type="curve" smooth="yes"/>
      <point x="752" y="638"/>
      <point x="680" y="557"/>
      <point x="579" y="557" type="curve" smooth="yes"/>
      <point x="532" y="557"/>
      <point x="508" y="562"/>
    </contour>
  </outline>
</glyph>
<glyph name="ertick-cy.sc" format="1">
  <advance width="1105"/>
  <outline>
    <contour>
      <point x="548" y="-144" type="move" name="mark0"/>
    </contour>
    <contour>
      <point x="341" y="1292" type="curve" smooth="yes"/>
      <point x="55" y="1292" type="line"/>
      <point x="55" y="1158" type="line"/>
      <point x="168" y="1133" type="line"/>
      <point x="168" y="145" type="line"/>
      <point x="51" y="126" type="line"/>
      <point x="51" y="0" type="line"/>
      <point x="706" y="0" type="line"/>
      <point x="706" y="126" type="line"/>
      <point x="497" y="145" type="line"/>
      <point x="497" y="436" type="line"/>
      <point x="515" y="434"/>
      <point x="553" y="431"/>
      <point x="588" y="431" type="curve" smooth="yes"/>
      <point x="676" y="431"/>
      <point x="752" y="443"/>
      <point x="818" y="467" type="curve"/>
      <point x="952" y="315" type="line"/>
      <point x="1029" y="387" type="line"/>
      <point x="914" y="516" type="line"/>
      <point x="1023" y="595"/>
      <point x="1083" y="725"/>
      <point x="1083" y="908" type="curve" smooth="yes"/>
      <point x="1083" y="1165"/>
      <point x="972" y="1300"/>
      <point x="608" y="1301" type="curve" smooth="yes"/>
      <point x="489" y="1303"/>
      <point x="402" y="1292"/>
    </contour>
    <contour>
      <point x="734" y="711" type="curve"/>
      <point x="643" y="816" type="line"/>
      <point x="566" y="744" type="line"/>
      <point x="689" y="606" type="line"/>
      <point x="660" y="572"/>
      <point x="623" y="557"/>
      <point x="579" y="557" type="curve" smooth="yes"/>
      <point x="532" y="557"/>
      <point x="508" y="562"/>
      <point x="496" y="566" type="curve"/>
      <point x="496" y="1166" type="line"/>
      <point x="514" y="1171"/>
      <point x="521" y="1176"/>
      <point x="577" y="1176" type="curve" smooth="yes"/>
      <point x="689" y="1176"/>
      <point x="752" y="1091"/>
      <point x="752" y="900" type="curve" smooth="yes"/>
      <point x="752" y="821"/>
      <point x="746" y="758"/>
    </contour>
  </outline>
</glyph>
<glyph name="es-cy.sc" format="1">
  <advance width="1090"/>
  <outline>
    <contour>
      <point x="625" y="1287" type="move" name="top"/>
    </contour>
    <contour>
      <point x="591" y="-144" type="move" name="mark0"/>
    </contour>
    <contour>
      <point x="630" y="0" type="move" name="bottomright"/>
    </contour>
    <contour>
      <point x="592" y="0" type="move" name="bottom"/>
    </contour>
    <contour>
      <point x="619" y="-20" type="curve" smooth="yes"/>
      <point x="825" y="-20"/>
      <point x="894" y="35"/>
      <point x="1012" y="46" type="curve"/>
      <point x="1040" y="373" type="line"/>
      <point x="860" y="391" type="line"/>
      <point x="781" y="169" type="line"/>
      <point x="758" y="142"/>
      <point x="725" y="117"/>
      <point x="641" y="117" type="curve" smooth="yes"/>
      <point x="487" y="117"/>
      <point x="407" y="333"/>
      <point x="407" y="656" type="curve" smooth="yes"/>
      <point x="407" y="1009"/>
      <point x="496" y="1172"/>
      <point x="637" y="1172" type="curve" smooth="yes"/>
      <point x="702" y="1172"/>
      <point x="738" y="1152"/>
      <point x="753" y="1135" type="curve"/>
      <point x="815" y="848" type="line"/>
      <point x="1007" y="848" type="line"/>
      <point x="1030" y="1278" type="line"/>
      <point x="894" y="1278"/>
      <point x="814" y="1306"/>
      <point x="648" y="1306" type="curve" smooth="yes"/>
      <point x="297" y="1306"/>
      <point x="39" y="1060"/>
      <point x="39" y="629" type="curve" smooth="yes"/>
      <point x="39" y="238"/>
      <point x="225" y="-20"/>
    </contour>
  </outline>
</glyph>
<glyph name="esdescender-cy.loclBSH.sc" format="1">
  <advance width="1090"/>
  <outline>
    <contour>
      <point x="692" y="-17" type="curve"/>
      <point x="544" y="-17" type="line"/>
      <point x="578" y="-61"/>
      <point x="596" y="-123"/>
      <point x="596" y="-180" type="curve"/>
      <point x="491" y="-341" type="line"/>
      <point x="501" y="-415"/>
      <point x="552" y="-475"/>
      <point x="644" y="-475" type="curve" smooth="yes"/>
      <point x="729" y="-475"/>
      <point x="806" y="-412"/>
      <point x="806" y="-297" type="curve" smooth="yes"/>
      <point x="806" y="-190"/>
      <point x="750" y="-88"/>
    </contour>
    <contour>
      <point x="616" y="-20" type="curve" smooth="yes"/>
      <point x="822" y="-20"/>
      <point x="890" y="35"/>
      <point x="1009" y="46" type="curve"/>
      <point x="1037" y="373" type="line"/>
      <point x="857" y="391" type="line"/>
      <point x="779" y="169" type="line"/>
      <point x="754" y="142"/>
      <point x="721" y="117"/>
      <point x="638" y="117" type="curve" smooth="yes"/>
      <point x="484" y="117"/>
      <point x="404" y="333"/>
      <point x="404" y="656" type="curve" smooth="yes"/>
      <point x="404" y="1009"/>
      <point x="494" y="1172"/>
      <point x="634" y="1172" type="curve" smooth="yes"/>
      <point x="699" y="1172"/>
      <point x="735" y="1152"/>
      <point x="750" y="1135" type="curve"/>
      <point x="813" y="848" type="line"/>
      <point x="1005" y="848" type="line"/>
      <point x="1027" y="1278" type="line"/>
      <point x="891" y="1278"/>
      <point x="811" y="1306"/>
      <point x="645" y="1306" type="curve" smooth="yes"/>
      <point x="294" y="1306"/>
      <point x="36" y="1060"/>
      <point x="36" y="629" type="curve" smooth="yes"/>
      <point x="36" y="238"/>
      <point x="223" y="-20"/>
    </contour>
  </outline>
</glyph>
<glyph name="esdescender-cy.loclCHU.sc" format="1">
  <advance width="1090"/>
  <outline>
    <contour>
      <point x="591" y="-144" type="move" name="mark0"/>
    </contour>
    <contour>
      <point x="616" y="-20" type="curve" smooth="yes"/>
      <point x="822" y="-20"/>
      <point x="890" y="35"/>
      <point x="1009" y="46" type="curve"/>
      <point x="1037" y="373" type="line"/>
      <point x="857" y="391" type="line"/>
      <point x="779" y="169" type="line"/>
      <point x="754" y="142"/>
      <point x="721" y="117"/>
      <point x="638" y="117" type="curve" smooth="yes"/>
      <point x="484" y="117"/>
      <point x="404" y="333"/>
      <point x="404" y="656" type="curve" smooth="yes"/>
      <point x="404" y="1009"/>
      <point x="494" y="1172"/>
      <point x="634" y="1172" type="curve" smooth="yes"/>
      <point x="699" y="1172"/>
      <point x="735" y="1152"/>
      <point x="750" y="1135" type="curve"/>
      <point x="813" y="848" type="line"/>
      <point x="1005" y="848" type="line"/>
      <point x="1027" y="1278" type="line"/>
      <point x="891" y="1278"/>
      <point x="811" y="1306"/>
      <point x="645" y="1306" type="curve" smooth="yes"/>
      <point x="294" y="1306"/>
      <point x="36" y="1060"/>
      <point x="36" y="629" type="curve" smooth="yes"/>
      <point x="36" y="238"/>
      <point x="223" y="-20"/>
    </contour>
  </outline>
</glyph>
<glyph name="esdescender-cy.sc" format="1">
  <advance width="1088"/>
  <outline>
    <contour>
      <point x="1012" y="46" type="curve"/>
      <point x="1038" y="346" type="line"/>
      <point x="851" y="362" type="line"/>
      <point x="777" y="169" type="line"/>
      <point x="753" y="142"/>
      <point x="724" y="117"/>
      <point x="641" y="117" type="curve" smooth="yes"/>
      <point x="487" y="117"/>
      <point x="407" y="333"/>
      <point x="407" y="656" type="curve" smooth="yes"/>
      <point x="407" y="1009"/>
      <point x="496" y="1172"/>
      <point x="637" y="1172" type="curve" smooth="yes"/>
      <point x="709" y="1172"/>
      <point x="738" y="1152"/>
      <point x="753" y="1135" type="curve"/>
      <point x="815" y="848" type="line"/>
      <point x="1019" y="848" type="line"/>
      <point x="1042" y="1267" type="line"/>
      <point x="973" y="1269"/>
      <point x="814" y="1306"/>
      <point x="648" y="1306" type="curve" smooth="yes"/>
      <point x="297" y="1306"/>
      <point x="39" y="1060"/>
      <point x="39" y="629" type="curve" smooth="yes"/>
      <point x="39" y="286"/>
      <point x="184" y="44"/>
      <point x="486" y="-8" type="curve"/>
      <point x="502" y="-54"/>
      <point x="536" y="-259"/>
      <point x="536" y="-370" type="curve"/>
      <point x="720" y="-370" type="line"/>
      <point x="721" y="-206"/>
      <point x="747" y="-60"/>
      <point x="764" y="-8" type="curve"/>
      <point x="866" y="6"/>
      <point x="926" y="38"/>
    </contour>
  </outline>
</glyph>
<glyph name="fita-cy.sc" format="1">
  <advance width="1198"/>
  <outline>
    <contour>
      <point x="593" y="-20" type="curve" smooth="yes"/>
      <point x="946" y="-18"/>
      <point x="1157" y="267"/>
      <point x="1157" y="672" type="curve" smooth="yes"/>
      <point x="1157" y="1056"/>
      <point x="1013" y="1309"/>
      <point x="606" y="1311" type="curve" smooth="yes"/>
      <point x="258" y="1312"/>
      <point x="42" y="1051"/>
      <point x="42" y="647" type="curve" smooth="yes"/>
      <point x="42" y="249"/>
      <point x="193" y="-22"/>
    </contour>
    <contour>
      <point x="598" y="108" type="curve" smooth="yes"/>
      <point x="482" y="108"/>
      <point x="409" y="236"/>
      <point x="400" y="593" type="curve"/>
      <point x="418" y="612"/>
      <point x="438" y="630"/>
      <point x="468" y="630" type="curve" smooth="yes"/>
      <point x="551" y="630"/>
      <point x="596" y="539"/>
      <point x="704" y="539" type="curve" smooth="yes"/>
      <point x="741" y="539"/>
      <point x="770" y="550"/>
      <point x="796" y="570" type="curve"/>
      <point x="783" y="269"/>
      <point x="714" y="108"/>
    </contour>
    <contour>
      <point x="405" y="756" type="curve"/>
      <point x="418" y="1047"/>
      <point x="485" y="1185"/>
      <point x="602" y="1185" type="curve" smooth="yes"/>
      <point x="715" y="1185"/>
      <point x="790" y="1079"/>
      <point x="797" y="728" type="curve"/>
      <point x="783" y="714"/>
      <point x="771" y="700"/>
      <point x="739" y="700" type="curve" smooth="yes"/>
      <point x="654" y="700"/>
      <point x="609" y="792"/>
      <point x="501" y="792" type="curve" smooth="yes"/>
      <point x="468" y="792"/>
      <point x="432" y="779"/>
    </contour>
  </outline>
</glyph>
<glyph name="ge-cy.sc" format="1">
  <advance width="1014"/>
  <outline>
    <contour>
      <point x="572" y="1287" type="move" name="top"/>
    </contour>
    <contour>
      <point x="507" y="648" type="move" name="center"/>
    </contour>
    <contour>
      <point x="231" y="0" type="move" name="bottomright"/>
    </contour>
    <contour>
      <point x="48" y="1292" type="line"/>
      <point x="48" y="1159" type="line"/>
      <point x="221" y="1132" type="line"/>
      <point x="221" y="147" type="line"/>
      <point x="46" y="127" type="line"/>
      <point x="46" y="0" type="line"/>
      <point x="790" y="0" type="line"/>
      <point x="790" y="127" type="line"/>
      <point x="546" y="147" type="line"/>
      <point x="546" y="1155" type="line"/>
      <point x="765" y="1132" type="line"/>
      <point x="830" y="761" type="line"/>
      <point x="1012" y="761" type="line"/>
      <point x="982" y="1292" type="line"/>
    </contour>
  </outline>
</glyph>
<glyph name="ghestroke-cy.loclBSH.sc" format="1">
  <advance width="1022"/>
  <outline>
    <contour>
      <point x="543" y="1287" type="move" name="top"/>
    </contour>
    <contour>
      <point x="527" y="-144" type="move" name="mark0"/>
    </contour>
    <contour>
      <point x="510" y="0" type="move" name="bottom"/>
    </contour>
    <contour>
      <point x="169" y="147" type="line"/>
      <point x="51" y="126" type="line"/>
      <point x="51" y="0" type="line"/>
      <point x="741" y="0" type="line"/>
      <point x="741" y="126" type="line"/>
      <point x="498" y="147" type="line"/>
      <point x="498" y="545" type="line"/>
      <point x="671" y="539" type="line"/>
      <point x="705" y="375" type="line"/>
      <point x="831" y="375" type="line"/>
      <point x="831" y="862" type="line"/>
      <point x="704" y="862" type="line"/>
      <point x="671" y="701" type="line"/>
      <point x="498" y="697" type="line"/>
      <point x="498" y="1168" type="line"/>
      <point x="758" y="1143" type="line"/>
      <point x="830" y="956" type="line"/>
      <point x="995" y="956" type="line"/>
      <point x="978" y="1292" type="line"/>
      <point x="44" y="1292" type="line"/>
      <point x="44" y="1158" type="line"/>
      <point x="169" y="1133" type="line"/>
    </contour>
  </outline>
</glyph>
<glyph name="gje-cy.sc" format="1">
  <advance width="1014"/>
  <outline>
    <contour>
      <point x="490" y="1439" type="line"/>
      <point x="597" y="1484"/>
      <point x="794" y="1673"/>
      <point x="857" y="1792" type="curve"/>
      <point x="683" y="1964" type="line"/>
      <point x="381" y="1537" type="line"/>
    </contour>
    <contour>
      <point x="48" y="1292" type="line"/>
      <point x="48" y="1159" type="line"/>
      <point x="221" y="1132" type="line"/>
      <point x="221" y="147" type="line"/>
      <point x="46" y="127" type="line"/>
      <point x="46" y="0" type="line"/>
      <point x="790" y="0" type="line"/>
      <point x="790" y="127" type="line"/>
      <point x="546" y="147" type="line"/>
      <point x="546" y="1155" type="line"/>
      <point x="765" y="1132" type="line"/>
      <point x="830" y="761" type="line"/>
      <point x="1012" y="761" type="line"/>
      <point x="982" y="1292" type="line"/>
    </contour>
  </outline>
</glyph>
<glyph name="ha-cy.sc" format="1">
  <advance width="1189"/>
  <outline>
    <contour>
      <point x="585" y="-144" type="move" name="mark0"/>
    </contour>
    <contour>
      <point x="143" y="145" type="line"/>
      <point x="12" y="126" type="line"/>
      <point x="12" y="0" type="line"/>
      <point x="468" y="0" type="line"/>
      <point x="468" y="126" type="line"/>
      <point x="324" y="145" type="line"/>
      <point x="514" y="512" type="line"/>
      <point x="712" y="147" type="line"/>
      <point x="596" y="126" type="line"/>
      <point x="596" y="0" type="line"/>
      <point x="1189" y="0" type="line"/>
      <point x="1189" y="126" type="line"/>
      <point x="1090" y="147" type="line"/>
      <point x="748" y="699" type="line"/>
      <point x="1043" y="1132" type="line"/>
      <point x="1177" y="1158" type="line"/>
      <point x="1177" y="1292" type="line"/>
      <point x="736" y="1292" type="line"/>
      <point x="736" y="1158" type="line"/>
      <point x="869" y="1133" type="line"/>
      <point x="676" y="795" type="line"/>
      <point x="496" y="1131" type="line"/>
      <point x="609" y="1158" type="line"/>
      <point x="609" y="1292" type="line"/>
      <point x="15" y="1292" type="line"/>
      <point x="15" y="1158" type="line"/>
      <point x="116" y="1132" type="line"/>
      <point x="437" y="613" type="line"/>
    </contour>
  </outline>
</glyph>
<glyph name="hastroke-cy.sc" format="1">
  <advance width="1189"/>
  <outline>
    <contour>
      <point x="1041" y="718" type="line"/>
      <point x="143" y="718" type="line"/>
      <point x="143" y="574" type="line"/>
      <point x="1041" y="574" type="line"/>
    </contour>
    <contour>
      <point x="140" y="145" type="line"/>
      <point x="9" y="126" type="line"/>
      <point x="9" y="0" type="line"/>
      <point x="465" y="0" type="line"/>
      <point x="465" y="126" type="line"/>
      <point x="320" y="145" type="line"/>
      <point x="511" y="512" type="line"/>
      <point x="709" y="147" type="line"/>
      <point x="593" y="126" type="line"/>
      <point x="593" y="0" type="line"/>
      <point x="1186" y="0" type="line"/>
      <point x="1186" y="126" type="line"/>
      <point x="1088" y="147" type="line"/>
      <point x="745" y="699" type="line"/>
      <point x="1040" y="1132" type="line"/>
      <point x="1174" y="1158" type="line"/>
      <point x="1174" y="1292" type="line"/>
      <point x="733" y="1292" type="line"/>
      <point x="733" y="1158" type="line"/>
      <point x="866" y="1133" type="line"/>
      <point x="673" y="795" type="line"/>
      <point x="493" y="1131" type="line"/>
      <point x="607" y="1158" type="line"/>
      <point x="607" y="1292" type="line"/>
      <point x="12" y="1292" type="line"/>
      <point x="12" y="1158" type="line"/>
      <point x="112" y="1132" type="line"/>
      <point x="434" y="613" type="line"/>
    </contour>
  </outline>
</glyph>
<glyph name="i-cy.sc" format="1">
  <advance width="694"/>
  <outline>
    <contour>
      <point x="34" y="1292" type="move" name="topleft"/>
    </contour>
    <contour>
      <point x="348" y="1287" type="move" name="top"/>
    </contour>
    <contour>
      <point x="621" y="18" type="move" name="ogonek"/>
    </contour>
    <contour>
      <point x="375" y="-144" type="move" name="mark0"/>
    </contour>
    <contour>
      <point x="348" y="0" type="move" name="bottom"/>
    </contour>
    <contour>
      <point x="180" y="147" type="line"/>
      <point x="59" y="126" type="line"/>
      <point x="59" y="0" type="line"/>
      <point x="636" y="0" type="line"/>
      <point x="636" y="124" type="line"/>
      <point x="509" y="145" type="line"/>
      <point x="509" y="1133" type="line"/>
      <point x="636" y="1158" type="line"/>
      <point x="636" y="1292" type="line"/>
      <point x="57" y="1292" type="line"/>
      <point x="57" y="1158" type="line"/>
      <point x="180" y="1133" type="line"/>
    </contour>
  </outline>
</glyph>
<glyph name="idieresis-cy.sc" format="1">
  <advance width="1402"/>
  <outline>
    <contour>
      <point x="919" y="1462" type="curve"/>
      <point x="1041" y="1462"/>
      <point x="1076" y="1544"/>
      <point x="1076" y="1649" type="curve" smooth="yes"/>
      <point x="1076" y="1732"/>
      <point x="1038" y="1807"/>
      <point x="936" y="1807" type="curve" smooth="yes"/>
      <point x="828" y="1807"/>
      <point x="782" y="1724"/>
      <point x="782" y="1620" type="curve" smooth="yes"/>
      <point x="782" y="1544"/>
      <point x="826" y="1462"/>
    </contour>
    <contour>
      <point x="487" y="1462" type="curve" smooth="yes"/>
      <point x="609" y="1462"/>
      <point x="644" y="1544"/>
      <point x="644" y="1649" type="curve" smooth="yes"/>
      <point x="644" y="1732"/>
      <point x="606" y="1807"/>
      <point x="503" y="1807" type="curve"/>
      <point x="396" y="1807"/>
      <point x="351" y="1724"/>
      <point x="351" y="1620" type="curve" smooth="yes"/>
      <point x="351" y="1535"/>
      <point x="396" y="1462"/>
    </contour>
    <contour>
      <point x="56" y="1292" type="line"/>
      <point x="56" y="1158" type="line"/>
      <point x="165" y="1134" type="line"/>
      <point x="165" y="144" type="line"/>
      <point x="56" y="126" type="line"/>
      <point x="56" y="0" type="line"/>
      <point x="618" y="0" type="line"/>
      <point x="618" y="126" type="line"/>
      <point x="492" y="146" type="line"/>
      <point x="492" y="190" type="line"/>
      <point x="841" y="713" type="line"/>
      <point x="907" y="884" type="line"/>
      <point x="907" y="147" type="line"/>
      <point x="791" y="126" type="line"/>
      <point x="791" y="0" type="line"/>
      <point x="1341" y="0" type="line"/>
      <point x="1341" y="126" type="line"/>
      <point x="1232" y="147" type="line"/>
      <point x="1232" y="1133" type="line"/>
      <point x="1341" y="1158" type="line"/>
      <point x="1341" y="1292" type="line"/>
      <point x="791" y="1292" type="line"/>
      <point x="791" y="1158" type="line"/>
      <point x="907" y="1133" type="line"/>
      <point x="907" y="1098" type="line"/>
      <point x="568" y="572" type="line"/>
      <point x="492" y="404" type="line"/>
      <point x="492" y="1132" type="line"/>
      <point x="615" y="1160" type="line"/>
      <point x="615" y="1292" type="line"/>
    </contour>
  </outline>
</glyph>
<glyph name="ie-cy.sc" format="1">
  <advance width="1090"/>
  <outline>
    <contour>
      <point x="35" y="1292" type="move" name="topleft"/>
    </contour>
    <contour>
      <point x="538" y="1287" type="move" name="top"/>
    </contour>
    <contour>
      <point x="967" y="18" type="move" name="ogonek"/>
    </contour>
    <contour>
      <point x="573" y="-144" type="move" name="mark0"/>
    </contour>
    <contour>
      <point x="538" y="0" type="move" name="bottom"/>
    </contour>
    <contour>
      <point x="184" y="144" type="line"/>
      <point x="67" y="126" type="line"/>
      <point x="67" y="0" type="line"/>
      <point x="1050" y="0" type="line"/>
      <point x="1082" y="336" type="line"/>
      <point x="923" y="384" type="line"/>
      <point x="821" y="156" type="line"/>
      <point x="514" y="130" type="line"/>
      <point x="514" y="584" type="line"/>
      <point x="677" y="578" type="line"/>
      <point x="708" y="426" type="line"/>
      <point x="829" y="426" type="line"/>
      <point x="829" y="878" type="line"/>
      <point x="708" y="878" type="line"/>
      <point x="677" y="736" type="line"/>
      <point x="514" y="732" type="line"/>
      <point x="514" y="1168" type="line"/>
      <point x="794" y="1148" type="line"/>
      <point x="852" y="970" type="line"/>
      <point x="999" y="970" type="line"/>
      <point x="977" y="1292" type="line"/>
      <point x="61" y="1292" type="line"/>
      <point x="61" y="1158" type="line"/>
      <point x="184" y="1132" type="line"/>
    </contour>
  </outline>
</glyph>
<glyph name="iebreve-cy.sc" format="1">
  <advance width="1090"/>
  <outline>
    <contour>
      <point x="373" y="1866" type="curve" smooth="yes"/>
      <point x="170" y="1866" type="line"/>
      <point x="170" y="1848"/>
      <point x="169" y="1830"/>
      <point x="169" y="1812" type="curve" smooth="yes"/>
      <point x="169" y="1602"/>
      <point x="316" y="1457"/>
      <point x="537" y="1457" type="curve" smooth="yes"/>
      <point x="767" y="1457"/>
      <point x="904" y="1601"/>
      <point x="904" y="1812" type="curve" smooth="yes"/>
      <point x="904" y="1824"/>
      <point x="905" y="1854"/>
      <point x="903" y="1866" type="curve"/>
      <point x="700" y="1866" type="line" smooth="yes"/>
      <point x="675" y="1866"/>
      <point x="670" y="1808"/>
      <point x="670" y="1771" type="curve" smooth="yes"/>
      <point x="670" y="1672"/>
      <point x="628" y="1581"/>
      <point x="538" y="1581" type="curve" smooth="yes"/>
      <point x="445" y="1581"/>
      <point x="401" y="1672"/>
      <point x="401" y="1771" type="curve" smooth="yes"/>
      <point x="401" y="1808"/>
      <point x="398" y="1866"/>
    </contour>
    <contour>
      <point x="184" y="144" type="line"/>
      <point x="67" y="126" type="line"/>
      <point x="67" y="0" type="line"/>
      <point x="1050" y="0" type="line"/>
      <point x="1082" y="336" type="line"/>
      <point x="923" y="384" type="line"/>
      <point x="821" y="156" type="line"/>
      <point x="514" y="130" type="line"/>
      <point x="514" y="584" type="line"/>
      <point x="677" y="578" type="line"/>
      <point x="708" y="426" type="line"/>
      <point x="829" y="426" type="line"/>
      <point x="829" y="878" type="line"/>
      <point x="708" y="878" type="line"/>
      <point x="677" y="736" type="line"/>
      <point x="514" y="732" type="line"/>
      <point x="514" y="1168" type="line"/>
      <point x="794" y="1148" type="line"/>
      <point x="852" y="970" type="line"/>
      <point x="999" y="970" type="line"/>
      <point x="977" y="1292" type="line"/>
      <point x="61" y="1292" type="line"/>
      <point x="61" y="1158" type="line"/>
      <point x="184" y="1132" type="line"/>
    </contour>
  </outline>
</glyph>
<glyph name="iegrave-cy.sc" format="1">
  <advance width="1090"/>
  <outline>
    <contour>
      <point x="586" y="1448" type="curve"/>
      <point x="588" y="1448" type="line"/>
      <point x="697" y="1547" type="line"/>
      <point x="394" y="1973" type="line"/>
      <point x="221" y="1802" type="line"/>
      <point x="284" y="1682"/>
      <point x="483" y="1490"/>
    </contour>
    <contour>
      <point x="184" y="144" type="line"/>
      <point x="67" y="126" type="line"/>
      <point x="67" y="0" type="line"/>
      <point x="1050" y="0" type="line"/>
      <point x="1082" y="336" type="line"/>
      <point x="923" y="384" type="line"/>
      <point x="821" y="156" type="line"/>
      <point x="514" y="130" type="line"/>
      <point x="514" y="584" type="line"/>
      <point x="677" y="578" type="line"/>
      <point x="708" y="426" type="line"/>
      <point x="829" y="426" type="line"/>
      <point x="829" y="878" type="line"/>
      <point x="708" y="878" type="line"/>
      <point x="677" y="736" type="line"/>
      <point x="514" y="732" type="line"/>
      <point x="514" y="1168" type="line"/>
      <point x="794" y="1148" type="line"/>
      <point x="852" y="970" type="line"/>
      <point x="999" y="970" type="line"/>
      <point x="977" y="1292" type="line"/>
      <point x="61" y="1292" type="line"/>
      <point x="61" y="1158" type="line"/>
      <point x="184" y="1132" type="line"/>
    </contour>
  </outline>
</glyph>
<glyph name="iigrave-cy.loclBGR.sc" format="1">
  <advance width="1402"/>
  <outline>
    <contour>
      <point x="760" y="1448" type="curve"/>
      <point x="762" y="1448" type="line"/>
      <point x="871" y="1547" type="line"/>
      <point x="568" y="1973" type="line"/>
      <point x="395" y="1802" type="line"/>
      <point x="457" y="1682"/>
      <point x="657" y="1490"/>
    </contour>
    <contour>
      <point x="56" y="1292" type="line"/>
      <point x="56" y="1158" type="line"/>
      <point x="165" y="1134" type="line"/>
      <point x="165" y="144" type="line"/>
      <point x="56" y="126" type="line"/>
      <point x="56" y="0" type="line"/>
      <point x="618" y="0" type="line"/>
      <point x="618" y="126" type="line"/>
      <point x="492" y="146" type="line"/>
      <point x="492" y="190" type="line"/>
      <point x="841" y="713" type="line"/>
      <point x="907" y="884" type="line"/>
      <point x="907" y="147" type="line"/>
      <point x="791" y="126" type="line"/>
      <point x="791" y="0" type="line"/>
      <point x="1341" y="0" type="line"/>
      <point x="1341" y="126" type="line"/>
      <point x="1232" y="147" type="line"/>
      <point x="1232" y="1133" type="line"/>
      <point x="1341" y="1158" type="line"/>
      <point x="1341" y="1292" type="line"/>
      <point x="791" y="1292" type="line"/>
      <point x="791" y="1158" type="line"/>
      <point x="907" y="1133" type="line"/>
      <point x="907" y="1098" type="line"/>
      <point x="568" y="572" type="line"/>
      <point x="492" y="404" type="line"/>
      <point x="492" y="1132" type="line"/>
      <point x="615" y="1160" type="line"/>
      <point x="615" y="1292" type="line"/>
    </contour>
  </outline>
</glyph>
<glyph name="iishort-cy.sc" format="1">
  <advance width="1402"/>
  <outline>
    <contour>
      <point x="547" y="1866" type="curve" smooth="yes"/>
      <point x="344" y="1866" type="line"/>
      <point x="344" y="1848"/>
      <point x="343" y="1830"/>
      <point x="343" y="1812" type="curve" smooth="yes"/>
      <point x="343" y="1602"/>
      <point x="490" y="1457"/>
      <point x="710" y="1457" type="curve" smooth="yes"/>
      <point x="941" y="1457"/>
      <point x="1078" y="1601"/>
      <point x="1078" y="1812" type="curve" smooth="yes"/>
      <point x="1078" y="1824"/>
      <point x="1079" y="1854"/>
      <point x="1076" y="1866" type="curve"/>
      <point x="874" y="1866" type="line" smooth="yes"/>
      <point x="849" y="1866"/>
      <point x="844" y="1808"/>
      <point x="844" y="1771" type="curve" smooth="yes"/>
      <point x="844" y="1672"/>
      <point x="802" y="1581"/>
      <point x="712" y="1581" type="curve" smooth="yes"/>
      <point x="619" y="1581"/>
      <point x="575" y="1672"/>
      <point x="575" y="1771" type="curve" smooth="yes"/>
      <point x="575" y="1808"/>
      <point x="572" y="1866"/>
    </contour>
    <contour>
      <point x="56" y="1292" type="line"/>
      <point x="56" y="1158" type="line"/>
      <point x="165" y="1134" type="line"/>
      <point x="165" y="144" type="line"/>
      <point x="56" y="126" type="line"/>
      <point x="56" y="0" type="line"/>
      <point x="618" y="0" type="line"/>
      <point x="618" y="126" type="line"/>
      <point x="492" y="146" type="line"/>
      <point x="492" y="190" type="line"/>
      <point x="841" y="713" type="line"/>
      <point x="907" y="884" type="line"/>
      <point x="907" y="147" type="line"/>
      <point x="791" y="126" type="line"/>
      <point x="791" y="0" type="line"/>
      <point x="1341" y="0" type="line"/>
      <point x="1341" y="126" type="line"/>
      <point x="1232" y="147" type="line"/>
      <point x="1232" y="1133" type="line"/>
      <point x="1341" y="1158" type="line"/>
      <point x="1341" y="1292" type="line"/>
      <point x="791" y="1292" type="line"/>
      <point x="791" y="1158" type="line"/>
      <point x="907" y="1133" type="line"/>
      <point x="907" y="1098" type="line"/>
      <point x="568" y="572" type="line"/>
      <point x="492" y="404" type="line"/>
      <point x="492" y="1132" type="line"/>
      <point x="615" y="1160" type="line"/>
      <point x="615" y="1292" type="line"/>
    </contour>
  </outline>
</glyph>
<glyph name="iishorttail-cy.sc" format="1">
  <advance width="1402"/>
  <outline>
    <contour>
      <point x="1232" y="0" type="move" name="bottomright"/>
    </contour>
    <contour>
      <point x="1360" y="0" type="curve"/>
      <point x="1360" y="144" type="line"/>
      <point x="1196" y="144" type="line"/>
      <point x="1109" y="0" type="line"/>
      <point x="1115" y="0" type="line"/>
      <point x="1096" y="-70"/>
      <point x="1056" y="-240"/>
      <point x="1002" y="-370" type="curve"/>
      <point x="1170" y="-370" type="line"/>
      <point x="1208" y="-314"/>
      <point x="1306" y="-102"/>
    </contour>
    <contour>
      <point x="535" y="1852" type="curve" smooth="yes"/>
      <point x="333" y="1852" type="line"/>
      <point x="333" y="1834"/>
      <point x="331" y="1816"/>
      <point x="331" y="1798" type="curve" smooth="yes"/>
      <point x="331" y="1588"/>
      <point x="479" y="1443"/>
      <point x="699" y="1443" type="curve" smooth="yes"/>
      <point x="930" y="1443"/>
      <point x="1067" y="1587"/>
      <point x="1067" y="1798" type="curve" smooth="yes"/>
      <point x="1067" y="1810"/>
      <point x="1067" y="1840"/>
      <point x="1065" y="1852" type="curve"/>
      <point x="862" y="1852" type="line" smooth="yes"/>
      <point x="837" y="1852"/>
      <point x="833" y="1794"/>
      <point x="833" y="1757" type="curve" smooth="yes"/>
      <point x="833" y="1658"/>
      <point x="790" y="1567"/>
      <point x="701" y="1567" type="curve" smooth="yes"/>
      <point x="608" y="1567"/>
      <point x="564" y="1658"/>
      <point x="564" y="1757" type="curve" smooth="yes"/>
      <point x="564" y="1794"/>
      <point x="560" y="1852"/>
    </contour>
    <contour>
      <point x="56" y="1292" type="line"/>
      <point x="56" y="1158" type="line"/>
      <point x="165" y="1134" type="line"/>
      <point x="165" y="144" type="line"/>
      <point x="56" y="126" type="line"/>
      <point x="56" y="0" type="line"/>
      <point x="618" y="0" type="line"/>
      <point x="618" y="126" type="line"/>
      <point x="492" y="146" type="line"/>
      <point x="492" y="190" type="line"/>
      <point x="841" y="713" type="line"/>
      <point x="907" y="884" type="line"/>
      <point x="907" y="147" type="line"/>
      <point x="791" y="126" type="line"/>
      <point x="791" y="0" type="line"/>
      <point x="1341" y="0" type="line"/>
      <point x="1341" y="126" type="line"/>
      <point x="1232" y="147" type="line"/>
      <point x="1232" y="1133" type="line"/>
      <point x="1341" y="1158" type="line"/>
      <point x="1341" y="1292" type="line"/>
      <point x="791" y="1292" type="line"/>
      <point x="791" y="1158" type="line"/>
      <point x="907" y="1133" type="line"/>
      <point x="907" y="1098" type="line"/>
      <point x="568" y="572" type="line"/>
      <point x="492" y="404" type="line"/>
      <point x="492" y="1132" type="line"/>
      <point x="615" y="1160" type="line"/>
      <point x="615" y="1292" type="line"/>
    </contour>
  </outline>
</glyph>
<glyph name="imacron-cy.sc" format="1">
  <advance width="1402"/>
  <outline>
    <contour>
      <point x="985" y="1689" type="line"/>
      <point x="439" y="1689" type="line"/>
      <point x="439" y="1497" type="line"/>
      <point x="985" y="1497" type="line"/>
    </contour>
    <contour>
      <point x="56" y="1292" type="line"/>
      <point x="56" y="1158" type="line"/>
      <point x="165" y="1134" type="line"/>
      <point x="165" y="144" type="line"/>
      <point x="56" y="126" type="line"/>
      <point x="56" y="0" type="line"/>
      <point x="618" y="0" type="line"/>
      <point x="618" y="126" type="line"/>
      <point x="492" y="146" type="line"/>
      <point x="492" y="190" type="line"/>
      <point x="841" y="713" type="line"/>
      <point x="907" y="884" type="line"/>
      <point x="907" y="147" type="line"/>
      <point x="791" y="126" type="line"/>
      <point x="791" y="0" type="line"/>
      <point x="1341" y="0" type="line"/>
      <point x="1341" y="126" type="line"/>
      <point x="1232" y="147" type="line"/>
      <point x="1232" y="1133" type="line"/>
      <point x="1341" y="1158" type="line"/>
      <point x="1341" y="1292" type="line"/>
      <point x="791" y="1292" type="line"/>
      <point x="791" y="1158" type="line"/>
      <point x="907" y="1133" type="line"/>
      <point x="907" y="1098" type="line"/>
      <point x="568" y="572" type="line"/>
      <point x="492" y="404" type="line"/>
      <point x="492" y="1132" type="line"/>
      <point x="615" y="1160" type="line"/>
      <point x="615" y="1292" type="line"/>
    </contour>
  </outline>
</glyph>
<glyph name="io-cy.sc" format="1">
  <advance width="1090"/>
  <outline>
    <contour>
      <point x="745" y="1462" type="curve"/>
      <point x="867" y="1462"/>
      <point x="902" y="1544"/>
      <point x="902" y="1649" type="curve" smooth="yes"/>
      <point x="902" y="1732"/>
      <point x="864" y="1807"/>
      <point x="762" y="1807" type="curve" smooth="yes"/>
      <point x="654" y="1807"/>
      <point x="609" y="1724"/>
      <point x="609" y="1620" type="curve" smooth="yes"/>
      <point x="609" y="1544"/>
      <point x="652" y="1462"/>
    </contour>
    <contour>
      <point x="313" y="1462" type="curve" smooth="yes"/>
      <point x="435" y="1462"/>
      <point x="471" y="1544"/>
      <point x="471" y="1649" type="curve" smooth="yes"/>
      <point x="471" y="1732"/>
      <point x="432" y="1807"/>
      <point x="329" y="1807" type="curve"/>
      <point x="222" y="1807"/>
      <point x="177" y="1724"/>
      <point x="177" y="1620" type="curve" smooth="yes"/>
      <point x="177" y="1535"/>
      <point x="222" y="1462"/>
    </contour>
    <contour>
      <point x="184" y="144" type="line"/>
      <point x="67" y="126" type="line"/>
      <point x="67" y="0" type="line"/>
      <point x="1050" y="0" type="line"/>
      <point x="1082" y="336" type="line"/>
      <point x="923" y="384" type="line"/>
      <point x="821" y="156" type="line"/>
      <point x="514" y="130" type="line"/>
      <point x="514" y="584" type="line"/>
      <point x="677" y="578" type="line"/>
      <point x="708" y="426" type="line"/>
      <point x="829" y="426" type="line"/>
      <point x="829" y="878" type="line"/>
      <point x="708" y="878" type="line"/>
      <point x="677" y="736" type="line"/>
      <point x="514" y="732" type="line"/>
      <point x="514" y="1168" type="line"/>
      <point x="794" y="1148" type="line"/>
      <point x="852" y="970" type="line"/>
      <point x="999" y="970" type="line"/>
      <point x="977" y="1292" type="line"/>
      <point x="61" y="1292" type="line"/>
      <point x="61" y="1158" type="line"/>
      <point x="184" y="1132" type="line"/>
    </contour>
  </outline>
</glyph>
<glyph name="iu-cy.sc" format="1">
  <advance width="1842"/>
  <outline>
    <contour>
      <point x="699" y="738" type="curve"/>
      <point x="497" y="738" type="line"/>
      <point x="497" y="1133" type="line"/>
      <point x="624" y="1158" type="line"/>
      <point x="624" y="1292" type="line"/>
      <point x="52" y="1292" type="line"/>
      <point x="52" y="1158" type="line"/>
      <point x="168" y="1133" type="line"/>
      <point x="168" y="147" type="line"/>
      <point x="51" y="126" type="line"/>
      <point x="51" y="0" type="line"/>
      <point x="627" y="0" type="line"/>
      <point x="627" y="126" type="line"/>
      <point x="498" y="147" type="line"/>
      <point x="498" y="575" type="line"/>
      <point x="698" y="575" type="line"/>
      <point x="713" y="211"/>
      <point x="867" y="-17"/>
      <point x="1241" y="-17" type="curve" smooth="yes"/>
      <point x="1584" y="-17"/>
      <point x="1793" y="254"/>
      <point x="1794" y="670" type="curve" smooth="yes"/>
      <point x="1794" y="1061"/>
      <point x="1652" y="1309"/>
      <point x="1252" y="1311" type="curve" smooth="yes"/>
      <point x="938" y="1312"/>
      <point x="730" y="1094"/>
    </contour>
    <contour>
      <point x="1245" y="1185" type="curve" smooth="yes"/>
      <point x="1364" y="1185"/>
      <point x="1433" y="1058"/>
      <point x="1433" y="669" type="curve" smooth="yes"/>
      <point x="1433" y="303"/>
      <point x="1376" y="109"/>
      <point x="1248" y="109" type="curve" smooth="yes"/>
      <point x="1126" y="109"/>
      <point x="1055" y="256"/>
      <point x="1055" y="647" type="curve" smooth="yes"/>
      <point x="1055" y="1014"/>
      <point x="1118" y="1185"/>
    </contour>
  </outline>
</glyph>
<glyph name="je-cy.sc" format="1">
  <advance width="662"/>
  <outline>
    <contour>
      <point x="347" y="1287" type="move" name="top"/>
    </contour>
    <contour>
      <point x="277" y="-144" type="move" name="mark0"/>
    </contour>
    <contour>
      <point x="-36" y="-235" type="curve"/>
      <point x="36" y="-347" type="line"/>
      <point x="296" y="-304"/>
      <point x="438" y="-157"/>
      <point x="490" y="20" type="curve" smooth="yes"/>
      <point x="510" y="95"/>
      <point x="516" y="248"/>
      <point x="516" y="478" type="curve" smooth="yes"/>
      <point x="516" y="1134" type="line"/>
      <point x="636" y="1158" type="line"/>
      <point x="636" y="1292" type="line"/>
      <point x="61" y="1292" type="line"/>
      <point x="61" y="1158" type="line"/>
      <point x="191" y="1132" type="line"/>
      <point x="191" y="300" type="line" smooth="yes"/>
      <point x="191" y="147"/>
      <point x="177" y="55"/>
      <point x="159" y="-9" type="curve" smooth="yes"/>
      <point x="113" y="-138"/>
      <point x="32" y="-207"/>
    </contour>
  </outline>
</glyph>
<glyph name="ka-cy.sc" format="1">
  <advance width="1216"/>
  <outline>
    <contour>
      <point x="608" y="1287" type="move" name="top"/>
    </contour>
    <contour>
      <point x="608" y="648" type="move" name="center"/>
    </contour>
    <contour>
      <point x="1181" y="0" type="move" name="bottomright"/>
    </contour>
    <contour>
      <point x="768" y="707" type="curve"/>
      <point x="1049" y="1133" type="line"/>
      <point x="1192" y="1158" type="line"/>
      <point x="1192" y="1292" type="line"/>
      <point x="724" y="1292" type="line"/>
      <point x="724" y="1158" type="line"/>
      <point x="825" y="1134" type="line"/>
      <point x="585" y="711" type="line"/>
      <point x="496" y="711" type="line"/>
      <point x="496" y="1133" type="line"/>
      <point x="607" y="1158" type="line"/>
      <point x="607" y="1292" type="line"/>
      <point x="52" y="1292" type="line"/>
      <point x="52" y="1158" type="line"/>
      <point x="169" y="1133" type="line"/>
      <point x="169" y="147" type="line"/>
      <point x="52" y="126" type="line"/>
      <point x="52" y="0" type="line"/>
      <point x="643" y="0" type="line"/>
      <point x="643" y="124" type="line"/>
      <point x="496" y="147" type="line"/>
      <point x="496" y="599" type="line"/>
      <point x="537" y="599" type="line" smooth="yes"/>
      <point x="722" y="599"/>
      <point x="746" y="0"/>
      <point x="882" y="0" type="curve"/>
      <point x="1220" y="0" type="line"/>
      <point x="1220" y="126" type="line"/>
      <point x="1162" y="147" type="line" smooth="yes"/>
      <point x="1080" y="176"/>
      <point x="1020" y="662"/>
    </contour>
  </outline>
</glyph>
<glyph name="kadescender-cy.sc" format="1">
  <advance width="1256"/>
  <outline>
    <contour>
      <point x="765" y="707" type="curve"/>
      <point x="1046" y="1133" type="line"/>
      <point x="1189" y="1158" type="line"/>
      <point x="1189" y="1292" type="line"/>
      <point x="720" y="1292" type="line"/>
      <point x="720" y="1158" type="line"/>
      <point x="822" y="1134" type="line"/>
      <point x="581" y="711" type="line"/>
      <point x="493" y="711" type="line"/>
      <point x="493" y="1133" type="line"/>
      <point x="604" y="1158" type="line"/>
      <point x="604" y="1292" type="line"/>
      <point x="49" y="1292" type="line"/>
      <point x="49" y="1158" type="line"/>
      <point x="165" y="1133" type="line"/>
      <point x="165" y="147" type="line"/>
      <point x="49" y="126" type="line"/>
      <point x="49" y="0" type="line"/>
      <point x="639" y="0" type="line"/>
      <point x="639" y="124" type="line"/>
      <point x="493" y="147" type="line"/>
      <point x="493" y="599" type="line"/>
      <point x="534" y="599" type="line" smooth="yes"/>
      <point x="718" y="599"/>
      <point x="743" y="0"/>
      <point x="878" y="0" type="curve" smooth="yes"/>
      <point x="1009" y="0" type="line"/>
      <point x="1032" y="-53"/>
      <point x="1068" y="-306"/>
      <point x="1068" y="-366" type="curve"/>
      <point x="1235" y="-366" type="line"/>
      <point x="1243" y="-332"/>
      <point x="1276" y="9"/>
      <point x="1278" y="147" type="curve"/>
      <point x="1159" y="147" type="line"/>
      <point x="1078" y="179"/>
      <point x="1017" y="662"/>
    </contour>
  </outline>
</glyph>
<glyph name="kastroke-cy.sc" format="1">
  <advance width="1222"/>
  <outline>
    <contour>
      <point x="563" y="-144" type="move" name="mark0"/>
    </contour>
    <contour>
      <point x="807" y="708" type="curve"/>
      <point x="1056" y="1132" type="line"/>
      <point x="1198" y="1158" type="line"/>
      <point x="1198" y="1292" type="line"/>
      <point x="730" y="1292" type="line"/>
      <point x="730" y="1158" type="line"/>
      <point x="834" y="1134" type="line"/>
      <point x="624" y="712" type="line"/>
      <point x="501" y="712" type="line"/>
      <point x="501" y="900" type="line"/>
      <point x="637" y="900" type="line"/>
      <point x="637" y="1014" type="line"/>
      <point x="501" y="1014" type="line"/>
      <point x="501" y="1132" type="line"/>
      <point x="615" y="1158" type="line"/>
      <point x="615" y="1292" type="line"/>
      <point x="58" y="1292" type="line"/>
      <point x="58" y="1158" type="line"/>
      <point x="176" y="1132" type="line"/>
      <point x="176" y="1014" type="line"/>
      <point x="48" y="1014" type="line"/>
      <point x="48" y="900" type="line"/>
      <point x="176" y="900" type="line"/>
      <point x="176" y="146" type="line"/>
      <point x="58" y="126" type="line"/>
      <point x="58" y="0" type="line"/>
      <point x="649" y="0" type="line"/>
      <point x="649" y="124" type="line"/>
      <point x="501" y="146" type="line"/>
      <point x="501" y="598" type="line"/>
      <point x="577" y="598" type="line" smooth="yes"/>
      <point x="761" y="598"/>
      <point x="753" y="0"/>
      <point x="890" y="0" type="curve" smooth="yes"/>
      <point x="1227" y="0" type="line"/>
      <point x="1227" y="126" type="line"/>
      <point x="1171" y="146" type="line" smooth="yes"/>
      <point x="1088" y="178"/>
      <point x="1061" y="662"/>
    </contour>
  </outline>
</glyph>
<glyph name="kaverticalstroke-cy.sc" format="1">
  <advance width="1346"/>
  <outline>
    <contour>
      <point x="930" y="724" type="curve"/>
      <point x="1161" y="1134" type="line"/>
      <point x="1301" y="1158" type="line"/>
      <point x="1301" y="1292" type="line"/>
      <point x="816" y="1292" type="line"/>
      <point x="816" y="1158" type="line"/>
      <point x="936" y="1132" type="line"/>
      <point x="754" y="734" type="line"/>
      <point x="704" y="734" type="line"/>
      <point x="704" y="964" type="line"/>
      <point x="591" y="964" type="line"/>
      <point x="591" y="734" type="line"/>
      <point x="496" y="734" type="line"/>
      <point x="496" y="1133" type="line"/>
      <point x="607" y="1158" type="line"/>
      <point x="607" y="1292" type="line"/>
      <point x="52" y="1292" type="line"/>
      <point x="52" y="1158" type="line"/>
      <point x="169" y="1133" type="line"/>
      <point x="169" y="147" type="line"/>
      <point x="52" y="126" type="line"/>
      <point x="52" y="0" type="line"/>
      <point x="643" y="0" type="line"/>
      <point x="643" y="124" type="line"/>
      <point x="496" y="147" type="line"/>
      <point x="496" y="615" type="line"/>
      <point x="591" y="615" type="line"/>
      <point x="591" y="314" type="line"/>
      <point x="704" y="314" type="line"/>
      <point x="704" y="602" type="line"/>
      <point x="747" y="602" type="line" smooth="yes"/>
      <point x="885" y="524"/>
      <point x="892" y="0"/>
      <point x="1072" y="0" type="curve" smooth="yes"/>
      <point x="1361" y="-4" type="line"/>
      <point x="1361" y="126" type="line"/>
      <point x="1305" y="147" type="line" smooth="yes"/>
      <point x="1232" y="180"/>
      <point x="1149" y="650"/>
    </contour>
  </outline>
</glyph>
<glyph name="komidje-cy.sc" format="1">
  <advance width="1751"/>
  <outline>
    <contour>
      <point x="1635" y="296" type="curve" smooth="yes"/>
      <point x="1635" y="580" type="line"/>
      <point x="1743" y="608" type="line"/>
      <point x="1743" y="736" type="line"/>
      <point x="1187" y="736" type="line"/>
      <point x="1187" y="608" type="line"/>
      <point x="1305" y="582" type="line"/>
      <point x="1305" y="298" type="line" smooth="yes"/>
      <point x="1305" y="188"/>
      <point x="1260" y="118"/>
      <point x="1145" y="118" type="curve" smooth="yes"/>
      <point x="1032" y="118"/>
      <point x="975" y="168"/>
      <point x="973" y="300" type="curve" smooth="yes"/>
      <point x="973" y="1136" type="line"/>
      <point x="1089" y="1162" type="line"/>
      <point x="1089" y="1292" type="line"/>
      <point x="478" y="1292" type="line"/>
      <point x="480" y="1162" type="line"/>
      <point x="646" y="1136" type="line"/>
      <point x="646" y="772" type="line"/>
      <point x="613" y="778"/>
      <point x="530" y="788"/>
      <point x="450" y="788" type="curve" smooth="yes"/>
      <point x="165" y="788"/>
      <point x="29" y="608"/>
      <point x="29" y="372" type="curve" smooth="yes"/>
      <point x="29" y="120"/>
      <point x="199" y="-18"/>
      <point x="440" y="-18" type="curve" smooth="yes"/>
      <point x="614" y="-18"/>
      <point x="705" y="10"/>
      <point x="779" y="56" type="curve"/>
      <point x="860" y="8"/>
      <point x="979" y="-14"/>
      <point x="1131" y="-14" type="curve" smooth="yes"/>
      <point x="1421" y="-14"/>
      <point x="1635" y="82"/>
    </contour>
    <contour>
      <point x="646" y="648" type="curve"/>
      <point x="646" y="308" type="line" smooth="yes"/>
      <point x="646" y="264"/>
      <point x="654" y="216"/>
      <point x="666" y="182" type="curve"/>
      <point x="645" y="142"/>
      <point x="596" y="120"/>
      <point x="555" y="120" type="curve" smooth="yes"/>
      <point x="414" y="120"/>
      <point x="374" y="240"/>
      <point x="374" y="374" type="curve" smooth="yes"/>
      <point x="374" y="550"/>
      <point x="424" y="654"/>
      <point x="537" y="654" type="curve" smooth="yes"/>
      <point x="589" y="654"/>
      <point x="614" y="654"/>
    </contour>
  </outline>
</glyph>
<glyph name="kominje-cy.sc" format="1">
  <advance width="1976"/>
  <outline>
    <contour>
      <point x="1211" y="300" type="curve" smooth="yes"/>
      <point x="1211" y="1134" type="line"/>
      <point x="1330" y="1162" type="line"/>
      <point x="1330" y="1292" type="line"/>
      <point x="745" y="1292" type="line"/>
      <point x="745" y="1162" type="line"/>
      <point x="883" y="1136" type="line"/>
      <point x="883" y="739" type="line"/>
      <point x="498" y="739" type="line"/>
      <point x="498" y="1133" type="line"/>
      <point x="627" y="1158" type="line"/>
      <point x="627" y="1292" type="line"/>
      <point x="56" y="1292" type="line"/>
      <point x="56" y="1158" type="line"/>
      <point x="168" y="1134" type="line"/>
      <point x="168" y="145" type="line"/>
      <point x="51" y="126" type="line"/>
      <point x="51" y="0" type="line"/>
      <point x="615" y="0" type="line"/>
      <point x="615" y="126" type="line"/>
      <point x="498" y="145" type="line"/>
      <point x="498" y="574" type="line"/>
      <point x="883" y="574" type="line"/>
      <point x="883" y="308" type="line" smooth="yes"/>
      <point x="883" y="95"/>
      <point x="1014" y="-14"/>
      <point x="1357" y="-14" type="curve" smooth="yes"/>
      <point x="1645" y="-14"/>
      <point x="1859" y="82"/>
      <point x="1859" y="296" type="curve" smooth="yes"/>
      <point x="1859" y="580" type="line"/>
      <point x="1967" y="607" type="line"/>
      <point x="1967" y="737" type="line"/>
      <point x="1413" y="737" type="line"/>
      <point x="1413" y="607" type="line"/>
      <point x="1532" y="580" type="line"/>
      <point x="1532" y="297" type="line" smooth="yes"/>
      <point x="1532" y="188"/>
      <point x="1486" y="118"/>
      <point x="1368" y="118" type="curve" smooth="yes"/>
      <point x="1263" y="118"/>
      <point x="1213" y="169"/>
    </contour>
  </outline>
</glyph>
<glyph name="komisje-cy.sc" format="1">
  <advance width="1260"/>
  <outline>
    <contour>
      <point x="621" y="-144" type="move" name="mark0"/>
    </contour>
    <contour>
      <point x="1138" y="296" type="curve" smooth="yes"/>
      <point x="1138" y="580" type="line"/>
      <point x="1246" y="607" type="line"/>
      <point x="1246" y="737" type="line"/>
      <point x="718" y="737" type="line"/>
      <point x="718" y="607" type="line"/>
      <point x="837" y="580" type="line"/>
      <point x="837" y="297" type="line" smooth="yes"/>
      <point x="837" y="188"/>
      <point x="791" y="116"/>
      <point x="674" y="118" type="curve" smooth="yes"/>
      <point x="505" y="118"/>
      <point x="418" y="366"/>
      <point x="418" y="668" type="curve" smooth="yes"/>
      <point x="418" y="1020"/>
      <point x="511" y="1183"/>
      <point x="694" y="1183" type="curve" smooth="yes"/>
      <point x="788" y="1183"/>
      <point x="821" y="1156"/>
      <point x="844" y="1135" type="curve"/>
      <point x="893" y="915" type="line"/>
      <point x="1123" y="915" type="line"/>
      <point x="1144" y="1257" type="line"/>
      <point x="1081" y="1270"/>
      <point x="878" y="1311"/>
      <point x="701" y="1311" type="curve" smooth="yes"/>
      <point x="305" y="1311"/>
      <point x="40" y="1059"/>
      <point x="40" y="631" type="curve" smooth="yes"/>
      <point x="40" y="251"/>
      <point x="273" y="-14"/>
      <point x="663" y="-14" type="curve" smooth="yes"/>
      <point x="938" y="-14"/>
      <point x="1138" y="84"/>
    </contour>
  </outline>
</glyph>
<glyph name="komitje-cy.sc" format="1">
  <advance width="1557"/>
  <outline>
    <contour>
      <point x="713" y="-144" type="move" name="mark0"/>
    </contour>
    <contour>
      <point x="780" y="300" type="curve" smooth="yes"/>
      <point x="780" y="1154" type="line"/>
      <point x="984" y="1133" type="line"/>
      <point x="1044" y="863" type="line"/>
      <point x="1221" y="863" type="line"/>
      <point x="1191" y="1292" type="line"/>
      <point x="50" y="1292" type="line"/>
      <point x="28" y="863" type="line"/>
      <point x="188" y="863" type="line"/>
      <point x="250" y="1133" type="line"/>
      <point x="452" y="1154" type="line"/>
      <point x="452" y="308" type="line" smooth="yes"/>
      <point x="452" y="96"/>
      <point x="586" y="-14"/>
      <point x="939" y="-14" type="curve" smooth="yes"/>
      <point x="1226" y="-14"/>
      <point x="1439" y="82"/>
      <point x="1439" y="296" type="curve" smooth="yes"/>
      <point x="1439" y="580" type="line"/>
      <point x="1548" y="607" type="line"/>
      <point x="1548" y="737" type="line"/>
      <point x="992" y="737" type="line"/>
      <point x="992" y="607" type="line"/>
      <point x="1112" y="580" type="line"/>
      <point x="1112" y="297" type="line" smooth="yes"/>
      <point x="1112" y="188"/>
      <point x="1066" y="118"/>
      <point x="949" y="118" type="curve" smooth="yes"/>
      <point x="822" y="118"/>
      <point x="780" y="180"/>
    </contour>
  </outline>
</glyph>
<glyph name="komizje-cy.sc" format="1">
  <advance width="1772"/>
  <outline>
    <contour>
      <point x="1658" y="296" type="curve" smooth="yes"/>
      <point x="1658" y="580" type="line"/>
      <point x="1763" y="607" type="line"/>
      <point x="1763" y="737" type="line"/>
      <point x="1209" y="737" type="line"/>
      <point x="1209" y="607" type="line"/>
      <point x="1328" y="581" type="line"/>
      <point x="1328" y="297" type="line" smooth="yes"/>
      <point x="1328" y="188"/>
      <point x="1284" y="118"/>
      <point x="1166" y="118" type="curve" smooth="yes"/>
      <point x="1053" y="118"/>
      <point x="995" y="164"/>
      <point x="995" y="300" type="curve" smooth="yes"/>
      <point x="995" y="519"/>
      <point x="858" y="678"/>
      <point x="645" y="682" type="curve"/>
      <point x="790" y="701"/>
      <point x="928" y="800"/>
      <point x="928" y="1010" type="curve" smooth="yes"/>
      <point x="928" y="1210"/>
      <point x="769" y="1306"/>
      <point x="466" y="1306" type="curve" smooth="yes"/>
      <point x="343" y="1306"/>
      <point x="138" y="1260"/>
      <point x="70" y="1256" type="curve"/>
      <point x="100" y="954" type="line"/>
      <point x="277" y="954" type="line"/>
      <point x="313" y="1133" type="line"/>
      <point x="322" y="1157"/>
      <point x="351" y="1183"/>
      <point x="428" y="1183" type="curve" smooth="yes"/>
      <point x="527" y="1183"/>
      <point x="585" y="1130"/>
      <point x="584" y="998" type="curve"/>
      <point x="584" y="795"/>
      <point x="492" y="747"/>
      <point x="409" y="747" type="curve" smooth="yes"/>
      <point x="322" y="747" type="line"/>
      <point x="322" y="604" type="line"/>
      <point x="421" y="604" type="line" smooth="yes"/>
      <point x="588" y="604"/>
      <point x="623" y="457"/>
      <point x="623" y="308" type="curve" smooth="yes"/>
      <point x="623" y="78"/>
      <point x="818" y="-14"/>
      <point x="1156" y="-14" type="curve" smooth="yes"/>
      <point x="1445" y="-14"/>
      <point x="1658" y="83"/>
    </contour>
  </outline>
</glyph>
<glyph name="lje-cy.sc" format="1">
  <advance width="1750"/>
  <outline>
    <contour>
      <point x="538" y="-144" type="move" name="mark0"/>
    </contour>
    <contour>
      <point x="1104" y="725" type="curve"/>
      <point x="1104" y="1133" type="line"/>
      <point x="1253" y="1158" type="line"/>
      <point x="1253" y="1292" type="line"/>
      <point x="165" y="1292" type="line"/>
      <point x="165" y="1158" type="line"/>
      <point x="362" y="1134" type="line"/>
      <point x="362" y="1023" type="line" smooth="yes"/>
      <point x="362" y="589"/>
      <point x="320" y="358"/>
      <point x="273" y="245" type="curve"/>
      <point x="247" y="185"/>
      <point x="222" y="167"/>
      <point x="172" y="167" type="curve" smooth="yes"/>
      <point x="115" y="167"/>
      <point x="86" y="171"/>
      <point x="43" y="173" type="curve"/>
      <point x="64" y="0" type="line"/>
      <point x="101" y="-8"/>
      <point x="146" y="-13"/>
      <point x="202" y="-13" type="curve" smooth="yes"/>
      <point x="290" y="-13"/>
      <point x="347" y="40"/>
      <point x="391" y="133" type="curve" smooth="yes"/>
      <point x="472" y="305"/>
      <point x="505" y="678"/>
      <point x="505" y="1019" type="curve" smooth="yes"/>
      <point x="505" y="1131" type="line"/>
      <point x="781" y="1131" type="line"/>
      <point x="781" y="147" type="line"/>
      <point x="610" y="126" type="line"/>
      <point x="610" y="0" type="line"/>
      <point x="952" y="0" type="line" smooth="yes"/>
      <point x="1021" y="0"/>
      <point x="1261" y="-14"/>
      <point x="1300" y="-14" type="curve" smooth="yes"/>
      <point x="1571" y="-14"/>
      <point x="1723" y="135"/>
      <point x="1723" y="388" type="curve" smooth="yes"/>
      <point x="1723" y="611"/>
      <point x="1595" y="743"/>
      <point x="1310" y="743" type="curve" smooth="yes"/>
      <point x="1251" y="743"/>
      <point x="1125" y="730"/>
    </contour>
    <contour>
      <point x="1104" y="134" type="curve"/>
      <point x="1104" y="591" type="line"/>
      <point x="1118" y="594"/>
      <point x="1177" y="601"/>
      <point x="1215" y="601" type="curve" smooth="yes"/>
      <point x="1338" y="601"/>
      <point x="1390" y="534"/>
      <point x="1390" y="364" type="curve" smooth="yes"/>
      <point x="1390" y="237"/>
      <point x="1355" y="118"/>
      <point x="1195" y="118" type="curve" smooth="yes"/>
      <point x="1160" y="118"/>
      <point x="1129" y="124"/>
    </contour>
  </outline>
</glyph>
<glyph name="nje-cy.sc" format="1">
  <advance width="1844"/>
  <outline>
    <contour>
      <point x="653" y="-144" type="move" name="mark0"/>
    </contour>
    <contour>
      <point x="1406" y="747" type="curve" smooth="yes"/>
      <point x="1201" y="747" type="line"/>
      <point x="1201" y="1136" type="line"/>
      <point x="1319" y="1162" type="line"/>
      <point x="1319" y="1292" type="line"/>
      <point x="746" y="1292" type="line"/>
      <point x="746" y="1162" type="line"/>
      <point x="875" y="1134" type="line"/>
      <point x="875" y="731" type="line"/>
      <point x="496" y="731" type="line"/>
      <point x="496" y="1133" type="line"/>
      <point x="630" y="1158" type="line"/>
      <point x="630" y="1292" type="line"/>
      <point x="52" y="1292" type="line"/>
      <point x="52" y="1158" type="line"/>
      <point x="168" y="1134" type="line"/>
      <point x="168" y="145" type="line"/>
      <point x="50" y="126" type="line"/>
      <point x="50" y="0" type="line"/>
      <point x="630" y="0" type="line"/>
      <point x="630" y="132" type="line"/>
      <point x="496" y="156" type="line"/>
      <point x="496" y="581" type="line"/>
      <point x="875" y="581" type="line"/>
      <point x="875" y="156" type="line"/>
      <point x="747" y="132" type="line"/>
      <point x="747" y="0" type="line"/>
      <point x="1051" y="0" type="line" smooth="yes"/>
      <point x="1118" y="0"/>
      <point x="1371" y="-15"/>
      <point x="1407" y="-15" type="curve" smooth="yes"/>
      <point x="1648" y="-15"/>
      <point x="1821" y="127"/>
      <point x="1821" y="386" type="curve" smooth="yes"/>
      <point x="1821" y="613"/>
      <point x="1658" y="747"/>
    </contour>
    <contour>
      <point x="1201" y="133" type="curve"/>
      <point x="1201" y="609" type="line"/>
      <point x="1311" y="609" type="line" smooth="yes"/>
      <point x="1417" y="609"/>
      <point x="1485" y="559"/>
      <point x="1485" y="369" type="curve" smooth="yes"/>
      <point x="1485" y="240"/>
      <point x="1451" y="117"/>
      <point x="1291" y="117" type="curve" smooth="yes"/>
      <point x="1254" y="117"/>
      <point x="1221" y="126"/>
    </contour>
  </outline>
</glyph>
<glyph name="o-cy.sc" format="1">
  <advance width="1199"/>
  <outline>
    <contour>
      <point x="35" y="1292" type="move" name="topleft"/>
    </contour>
    <contour>
      <point x="601" y="648" type="move" name="center"/>
    </contour>
    <contour>
      <point x="601" y="0" type="move" name="bottom"/>
    </contour>
    <contour>
      <point x="601" y="1287" type="move" name="top"/>
    </contour>
    <contour>
      <point x="947" y="1292" type="move" name="topright"/>
    </contour>
    <contour>
      <point x="595" y="-144" type="move" name="mark0"/>
    </contour>
    <contour>
      <point x="1075" y="18" type="move" name="ogonek"/>
    </contour>
    <contour>
      <point x="593" y="-20" type="curve" smooth="yes"/>
      <point x="945" y="-18"/>
      <point x="1159" y="267"/>
      <point x="1159" y="672" type="curve" smooth="yes"/>
      <point x="1159" y="1056"/>
      <point x="1010" y="1309"/>
      <point x="606" y="1311" type="curve" smooth="yes"/>
      <point x="258" y="1312"/>
      <point x="40" y="1051"/>
      <point x="40" y="647" type="curve" smooth="yes"/>
      <point x="40" y="249"/>
      <point x="193" y="-22"/>
    </contour>
    <contour>
      <point x="600" y="1185" type="curve" smooth="yes"/>
      <point x="723" y="1185"/>
      <point x="798" y="1064"/>
      <point x="798" y="670" type="curve" smooth="yes"/>
      <point x="798" y="302"/>
      <point x="725" y="108"/>
      <point x="598" y="108" type="curve" smooth="yes"/>
      <point x="476" y="108"/>
      <point x="401" y="254"/>
      <point x="401" y="648" type="curve" smooth="yes"/>
      <point x="401" y="1012"/>
      <point x="471" y="1185"/>
    </contour>
  </outline>
</glyph>
<glyph name="obarred-cy.sc" format="1">
  <advance width="1196"/>
  <outline>
    <contour>
      <point x="608" y="1287" type="move" name="top"/>
    </contour>
    <contour>
      <point x="593" y="-144" type="move" name="mark0"/>
    </contour>
    <contour>
      <point x="605" y="1311" type="curve" smooth="yes"/>
      <point x="255" y="1312"/>
      <point x="40" y="1051"/>
      <point x="40" y="647" type="curve" smooth="yes"/>
      <point x="40" y="249"/>
      <point x="192" y="-22"/>
      <point x="592" y="-20" type="curve" smooth="yes"/>
      <point x="944" y="-18"/>
      <point x="1156" y="267"/>
      <point x="1156" y="672" type="curve" smooth="yes"/>
      <point x="1156" y="1056"/>
      <point x="1010" y="1309"/>
    </contour>
    <contour>
      <point x="400" y="590" type="curve"/>
      <point x="795" y="590" type="line"/>
      <point x="785" y="271"/>
      <point x="713" y="108"/>
      <point x="597" y="108" type="curve" smooth="yes"/>
      <point x="482" y="108"/>
      <point x="405" y="237"/>
    </contour>
    <contour>
      <point x="798" y="712" type="curve"/>
      <point x="401" y="712" type="line"/>
      <point x="407" y="1031"/>
      <point x="478" y="1185"/>
      <point x="600" y="1185" type="curve" smooth="yes"/>
      <point x="716" y="1185"/>
      <point x="791" y="1073"/>
    </contour>
  </outline>
</glyph>
<glyph name="obarreddieresis-cy.sc" format="1">
  <advance width="1196"/>
  <outline>
    <contour>
      <point x="815" y="1462" type="curve"/>
      <point x="937" y="1462"/>
      <point x="972" y="1544"/>
      <point x="972" y="1649" type="curve" smooth="yes"/>
      <point x="972" y="1732"/>
      <point x="934" y="1807"/>
      <point x="832" y="1807" type="curve" smooth="yes"/>
      <point x="724" y="1807"/>
      <point x="679" y="1724"/>
      <point x="679" y="1620" type="curve" smooth="yes"/>
      <point x="679" y="1544"/>
      <point x="722" y="1462"/>
    </contour>
    <contour>
      <point x="383" y="1462" type="curve" smooth="yes"/>
      <point x="505" y="1462"/>
      <point x="541" y="1544"/>
      <point x="541" y="1649" type="curve" smooth="yes"/>
      <point x="541" y="1732"/>
      <point x="502" y="1807"/>
      <point x="399" y="1807" type="curve"/>
      <point x="292" y="1807"/>
      <point x="247" y="1724"/>
      <point x="247" y="1620" type="curve" smooth="yes"/>
      <point x="247" y="1535"/>
      <point x="292" y="1462"/>
    </contour>
    <contour>
      <point x="605" y="1311" type="curve" smooth="yes"/>
      <point x="255" y="1312"/>
      <point x="40" y="1051"/>
      <point x="40" y="647" type="curve" smooth="yes"/>
      <point x="40" y="249"/>
      <point x="192" y="-22"/>
      <point x="592" y="-20" type="curve" smooth="yes"/>
      <point x="944" y="-18"/>
      <point x="1156" y="267"/>
      <point x="1156" y="672" type="curve" smooth="yes"/>
      <point x="1156" y="1056"/>
      <point x="1010" y="1309"/>
    </contour>
    <contour>
      <point x="400" y="590" type="curve"/>
      <point x="795" y="590" type="line"/>
      <point x="785" y="271"/>
      <point x="713" y="108"/>
      <point x="597" y="108" type="curve" smooth="yes"/>
      <point x="482" y="108"/>
      <point x="405" y="237"/>
    </contour>
    <contour>
      <point x="798" y="712" type="curve"/>
      <point x="401" y="712" type="line"/>
      <point x="407" y="1031"/>
      <point x="478" y="1185"/>
      <point x="600" y="1185" type="curve" smooth="yes"/>
      <point x="716" y="1185"/>
      <point x="791" y="1073"/>
    </contour>
  </outline>
</glyph>
<glyph name="odieresis-cy.sc" format="1">
  <advance width="1199"/>
  <outline>
    <contour>
      <point x="808" y="1462" type="curve"/>
      <point x="930" y="1462"/>
      <point x="965" y="1544"/>
      <point x="965" y="1649" type="curve" smooth="yes"/>
      <point x="965" y="1732"/>
      <point x="927" y="1807"/>
      <point x="825" y="1807" type="curve" smooth="yes"/>
      <point x="717" y="1807"/>
      <point x="671" y="1724"/>
      <point x="671" y="1620" type="curve" smooth="yes"/>
      <point x="671" y="1544"/>
      <point x="715" y="1462"/>
    </contour>
    <contour>
      <point x="375" y="1462" type="curve" smooth="yes"/>
      <point x="497" y="1462"/>
      <point x="533" y="1544"/>
      <point x="533" y="1649" type="curve" smooth="yes"/>
      <point x="533" y="1732"/>
      <point x="495" y="1807"/>
      <point x="392" y="1807" type="curve"/>
      <point x="284" y="1807"/>
      <point x="240" y="1724"/>
      <point x="240" y="1620" type="curve" smooth="yes"/>
      <point x="240" y="1535"/>
      <point x="284" y="1462"/>
    </contour>
    <contour>
      <point x="593" y="-20" type="curve" smooth="yes"/>
      <point x="945" y="-18"/>
      <point x="1159" y="267"/>
      <point x="1159" y="672" type="curve" smooth="yes"/>
      <point x="1159" y="1056"/>
      <point x="1010" y="1309"/>
      <point x="606" y="1311" type="curve" smooth="yes"/>
      <point x="258" y="1312"/>
      <point x="40" y="1051"/>
      <point x="40" y="647" type="curve" smooth="yes"/>
      <point x="40" y="249"/>
      <point x="193" y="-22"/>
    </contour>
    <contour>
      <point x="600" y="1185" type="curve" smooth="yes"/>
      <point x="723" y="1185"/>
      <point x="798" y="1064"/>
      <point x="798" y="670" type="curve" smooth="yes"/>
      <point x="798" y="302"/>
      <point x="725" y="108"/>
      <point x="598" y="108" type="curve" smooth="yes"/>
      <point x="476" y="108"/>
      <point x="401" y="254"/>
      <point x="401" y="648" type="curve" smooth="yes"/>
      <point x="401" y="1012"/>
      <point x="471" y="1185"/>
    </contour>
  </outline>
</glyph>
<glyph name="qa-cy.sc" format="1">
  <advance width="1198"/>
  <outline>
    <contour>
      <point x="595" y="-144" type="move" name="mark0"/>
    </contour>
    <contour>
      <point x="1189" y="-324" type="curve" smooth="yes"/>
      <point x="1300" y="-324"/>
      <point x="1359" y="-291"/>
      <point x="1419" y="-205" type="curve"/>
      <point x="1391" y="-113" type="line"/>
      <point x="1378" y="-119"/>
      <point x="1350" y="-125"/>
      <point x="1290" y="-125" type="curve"/>
      <point x="1109" y="-125"/>
      <point x="1020" y="6"/>
      <point x="858" y="45" type="curve"/>
      <point x="1049" y="157"/>
      <point x="1159" y="392"/>
      <point x="1159" y="672" type="curve" smooth="yes"/>
      <point x="1159" y="1056"/>
      <point x="1011" y="1309"/>
      <point x="607" y="1311" type="curve" smooth="yes"/>
      <point x="257" y="1312"/>
      <point x="41" y="1051"/>
      <point x="41" y="647" type="curve" smooth="yes"/>
      <point x="41" y="249"/>
      <point x="194" y="-22"/>
      <point x="593" y="-20" type="curve" smooth="yes"/>
      <point x="632" y="-20"/>
      <point x="674" y="-14"/>
      <point x="711" y="-7" type="curve"/>
      <point x="887" y="-85"/>
      <point x="984" y="-324"/>
    </contour>
    <contour>
      <point x="599" y="108" type="curve" smooth="yes"/>
      <point x="477" y="108"/>
      <point x="402" y="254"/>
      <point x="402" y="648" type="curve" smooth="yes"/>
      <point x="402" y="1012"/>
      <point x="472" y="1185"/>
      <point x="601" y="1185" type="curve" smooth="yes"/>
      <point x="724" y="1185"/>
      <point x="798" y="1064"/>
      <point x="798" y="670" type="curve" smooth="yes"/>
      <point x="798" y="302"/>
      <point x="725" y="108"/>
    </contour>
  </outline>
</glyph>
<glyph name="reversedze-cy.sc" format="1">
  <advance width="1034"/>
  <outline>
    <contour>
      <point x="963" y="52" type="curve"/>
      <point x="962" y="354" type="line"/>
      <point x="801" y="356" type="line"/>
      <point x="725" y="146" type="line"/>
      <point x="705" y="123"/>
      <point x="650" y="99"/>
      <point x="590" y="99" type="curve" smooth="yes"/>
      <point x="467" y="99"/>
      <point x="420" y="199"/>
      <point x="420" y="359" type="curve" smooth="yes"/>
      <point x="420" y="467"/>
      <point x="457" y="587"/>
      <point x="601" y="587" type="curve"/>
      <point x="732" y="580" type="line"/>
      <point x="732" y="740" type="line"/>
      <point x="617" y="731" type="line"/>
      <point x="512" y="731"/>
      <point x="422" y="794"/>
      <point x="422" y="981" type="curve" smooth="yes"/>
      <point x="422" y="1112"/>
      <point x="498" y="1183"/>
      <point x="603" y="1183" type="curve" smooth="yes"/>
      <point x="675" y="1183"/>
      <point x="710" y="1155"/>
      <point x="719" y="1135" type="curve"/>
      <point x="766" y="911" type="line"/>
      <point x="942" y="911" type="line"/>
      <point x="962" y="1253" type="line"/>
      <point x="893" y="1261"/>
      <point x="702" y="1306"/>
      <point x="560" y="1306" type="curve" smooth="yes"/>
      <point x="242" y="1306"/>
      <point x="80" y="1176"/>
      <point x="80" y="980" type="curve" smooth="yes"/>
      <point x="80" y="781"/>
      <point x="205" y="699"/>
      <point x="368" y="666" type="curve"/>
      <point x="163" y="657"/>
      <point x="49" y="529"/>
      <point x="49" y="368" type="curve" smooth="yes"/>
      <point x="49" y="151"/>
      <point x="147" y="-20"/>
      <point x="568" y="-20" type="curve" smooth="yes"/>
      <point x="770" y="-20"/>
      <point x="880" y="45"/>
    </contour>
  </outline>
</glyph>
<glyph name="schwa-cy.sc" format="1">
  <advance width="1146"/>
  <outline>
    <contour>
      <point x="568" y="1287" type="move" name="top"/>
    </contour>
    <contour>
      <point x="533" y="-20" type="curve" smooth="yes"/>
      <point x="866" y="-20"/>
      <point x="1109" y="219"/>
      <point x="1109" y="658" type="curve" smooth="yes"/>
      <point x="1109" y="1085"/>
      <point x="876" y="1306"/>
      <point x="558" y="1306" type="curve" smooth="yes"/>
      <point x="333" y="1306"/>
      <point x="200" y="1244"/>
      <point x="109" y="1238" type="curve"/>
      <point x="111" y="944" type="line"/>
      <point x="336" y="935" type="line"/>
      <point x="365" y="1049" type="line"/>
      <point x="394" y="1114"/>
      <point x="406" y="1178"/>
      <point x="533" y="1178" type="curve" smooth="yes"/>
      <point x="683" y="1178"/>
      <point x="757" y="988"/>
      <point x="771" y="716" type="curve"/>
      <point x="71" y="719" type="line"/>
      <point x="60" y="672"/>
      <point x="53" y="560"/>
      <point x="53" y="485" type="curve"/>
      <point x="63" y="124"/>
      <point x="292" y="-20"/>
    </contour>
    <contour>
      <point x="572" y="137" type="curve" smooth="yes"/>
      <point x="415" y="137"/>
      <point x="379" y="330"/>
      <point x="379" y="471" type="curve" smooth="yes"/>
      <point x="379" y="506"/>
      <point x="379" y="533"/>
      <point x="381" y="563" type="curve"/>
      <point x="774" y="561" type="line"/>
      <point x="773" y="276"/>
      <point x="712" y="137"/>
    </contour>
  </outline>
</glyph>
<glyph name="schwadieresis-cy.sc" format="1">
  <advance width="1146"/>
  <outline>
    <contour>
      <point x="775" y="1462" type="curve"/>
      <point x="897" y="1462"/>
      <point x="932" y="1544"/>
      <point x="932" y="1649" type="curve" smooth="yes"/>
      <point x="932" y="1732"/>
      <point x="894" y="1807"/>
      <point x="792" y="1807" type="curve" smooth="yes"/>
      <point x="684" y="1807"/>
      <point x="639" y="1724"/>
      <point x="639" y="1620" type="curve" smooth="yes"/>
      <point x="639" y="1544"/>
      <point x="682" y="1462"/>
    </contour>
    <contour>
      <point x="343" y="1462" type="curve" smooth="yes"/>
      <point x="465" y="1462"/>
      <point x="501" y="1544"/>
      <point x="501" y="1649" type="curve" smooth="yes"/>
      <point x="501" y="1732"/>
      <point x="462" y="1807"/>
      <point x="359" y="1807" type="curve"/>
      <point x="252" y="1807"/>
      <point x="207" y="1724"/>
      <point x="207" y="1620" type="curve" smooth="yes"/>
      <point x="207" y="1535"/>
      <point x="252" y="1462"/>
    </contour>
    <contour>
      <point x="533" y="-20" type="curve" smooth="yes"/>
      <point x="866" y="-20"/>
      <point x="1109" y="219"/>
      <point x="1109" y="658" type="curve" smooth="yes"/>
      <point x="1109" y="1085"/>
      <point x="876" y="1306"/>
      <point x="558" y="1306" type="curve" smooth="yes"/>
      <point x="333" y="1306"/>
      <point x="200" y="1244"/>
      <point x="109" y="1238" type="curve"/>
      <point x="111" y="944" type="line"/>
      <point x="336" y="935" type="line"/>
      <point x="365" y="1049" type="line"/>
      <point x="394" y="1114"/>
      <point x="406" y="1178"/>
      <point x="533" y="1178" type="curve" smooth="yes"/>
      <point x="683" y="1178"/>
      <point x="757" y="988"/>
      <point x="771" y="716" type="curve"/>
      <point x="71" y="719" type="line"/>
      <point x="60" y="672"/>
      <point x="53" y="560"/>
      <point x="53" y="485" type="curve"/>
      <point x="63" y="124"/>
      <point x="292" y="-20"/>
    </contour>
    <contour>
      <point x="572" y="137" type="curve" smooth="yes"/>
      <point x="415" y="137"/>
      <point x="379" y="330"/>
      <point x="379" y="471" type="curve" smooth="yes"/>
      <point x="379" y="506"/>
      <point x="379" y="533"/>
      <point x="381" y="563" type="curve"/>
      <point x="774" y="561" type="line"/>
      <point x="773" y="276"/>
      <point x="712" y="137"/>
    </contour>
  </outline>
</glyph>
<glyph name="semisoftsign-cy.sc" format="1">
  <advance width="1146"/>
  <outline>
    <contour>
      <point x="496" y="771" type="curve"/>
      <point x="496" y="910" type="line"/>
      <point x="720" y="910" type="line"/>
      <point x="720" y="1027" type="line"/>
      <point x="496" y="1027" type="line"/>
      <point x="496" y="1134" type="line"/>
      <point x="673" y="1162" type="line"/>
      <point x="673" y="1292" type="line"/>
      <point x="52" y="1292" type="line"/>
      <point x="52" y="1162" type="line"/>
      <point x="168" y="1136" type="line"/>
      <point x="168" y="1027" type="line"/>
      <point x="29" y="1027" type="line"/>
      <point x="29" y="910" type="line"/>
      <point x="168" y="910" type="line"/>
      <point x="168" y="145" type="line"/>
      <point x="51" y="126" type="line"/>
      <point x="51" y="0" type="line"/>
      <point x="302" y="0" type="line" smooth="yes"/>
      <point x="457" y="0"/>
      <point x="556" y="-14"/>
      <point x="679" y="-14" type="curve" smooth="yes"/>
      <point x="920" y="-14"/>
      <point x="1119" y="144"/>
      <point x="1119" y="402" type="curve" smooth="yes"/>
      <point x="1119" y="632"/>
      <point x="988" y="777"/>
      <point x="705" y="777" type="curve"/>
      <point x="678" y="777"/>
      <point x="507" y="772"/>
    </contour>
    <contour>
      <point x="496" y="131" type="curve"/>
      <point x="496" y="638" type="line"/>
      <point x="503" y="639"/>
      <point x="594" y="642"/>
      <point x="607" y="642" type="curve" smooth="yes"/>
      <point x="730" y="642"/>
      <point x="781" y="561"/>
      <point x="781" y="386" type="curve" smooth="yes"/>
      <point x="781" y="254"/>
      <point x="747" y="119"/>
      <point x="588" y="119" type="curve" smooth="yes"/>
      <point x="551" y="119"/>
      <point x="520" y="123"/>
    </contour>
  </outline>
</glyph>
<glyph name="shha-cy.sc" format="1">
  <advance width="1243"/>
  <outline>
    <contour>
      <point x="31" y="1124" type="move" name="topleft"/>
    </contour>
    <contour>
      <point x="620" y="476" type="move" name="center"/>
    </contour>
    <contour>
      <point x="640" y="-168" type="move" name="bottom"/>
    </contour>
    <contour>
      <point x="491" y="764" type="curve"/>
      <point x="491" y="1146" type="line"/>
      <point x="666" y="1166" type="line"/>
      <point x="666" y="1292" type="line"/>
      <point x="44" y="1292" type="line"/>
      <point x="44" y="1168" type="line"/>
      <point x="165" y="1146" type="line"/>
      <point x="165" y="160" type="line"/>
      <point x="45" y="134" type="line"/>
      <point x="45" y="0" type="line"/>
      <point x="610" y="0" type="line"/>
      <point x="610" y="134" type="line"/>
      <point x="491" y="158" type="line"/>
      <point x="491" y="612" type="line"/>
      <point x="522" y="642"/>
      <point x="584" y="662"/>
      <point x="650" y="662" type="curve" smooth="yes"/>
      <point x="785" y="662"/>
      <point x="807" y="602"/>
      <point x="807" y="380" type="curve" smooth="yes"/>
      <point x="807" y="158" type="line"/>
      <point x="706" y="134" type="line"/>
      <point x="706" y="0" type="line"/>
      <point x="1221" y="0" type="line"/>
      <point x="1221" y="134" type="line"/>
      <point x="1132" y="160" type="line"/>
      <point x="1132" y="448" type="line" smooth="yes"/>
      <point x="1132" y="724"/>
      <point x="1036" y="838"/>
      <point x="765" y="838" type="curve" smooth="yes"/>
      <point x="679" y="838"/>
      <point x="566" y="816"/>
    </contour>
  </outline>
</glyph>
<glyph name="shhadescender-cy.sc" format="1">
  <advance width="1349"/>
  <outline>
    <contour>
      <point x="49" y="1292" type="move" name="topleft"/>
    </contour>
    <contour>
      <point x="638" y="646" type="move" name="center"/>
    </contour>
    <contour>
      <point x="657" y="0" type="move" name="bottom"/>
    </contour>
    <contour>
      <point x="62" y="0" type="line"/>
      <point x="627" y="0" type="line"/>
      <point x="627" y="135" type="line"/>
      <point x="508" y="160" type="line"/>
      <point x="508" y="611" type="line"/>
      <point x="540" y="642"/>
      <point x="599" y="664"/>
      <point x="666" y="664" type="curve" smooth="yes"/>
      <point x="802" y="664"/>
      <point x="823" y="603"/>
      <point x="823" y="381" type="curve" smooth="yes"/>
      <point x="823" y="159" type="line"/>
      <point x="723" y="136" type="line"/>
      <point x="723" y="0" type="line"/>
      <point x="1054" y="0" type="line"/>
      <point x="1080" y="-53"/>
      <point x="1111" y="-313"/>
      <point x="1114" y="-366" type="curve"/>
      <point x="1282" y="-366" type="line"/>
      <point x="1290" y="-334"/>
      <point x="1323" y="14"/>
      <point x="1323" y="147" type="curve"/>
      <point x="1151" y="162" type="line"/>
      <point x="1151" y="448" type="line"/>
      <point x="1151" y="734"/>
      <point x="1050" y="838"/>
      <point x="782" y="838" type="curve" smooth="yes"/>
      <point x="688" y="838"/>
      <point x="580" y="815"/>
      <point x="508" y="766" type="curve"/>
      <point x="508" y="1146" type="line"/>
      <point x="683" y="1166" type="line"/>
      <point x="683" y="1292" type="line"/>
      <point x="62" y="1292" type="line"/>
      <point x="62" y="1168" type="line"/>
      <point x="183" y="1146" type="line"/>
      <point x="183" y="161" type="line"/>
      <point x="62" y="135" type="line"/>
    </contour>
  </outline>
</glyph>
<glyph name="te-cy.loclBGR.sc" format="1">
  <advance width="1219"/>
  <outline>
    <contour>
      <point x="453" y="146" type="line"/>
      <point x="248" y="126" type="line"/>
      <point x="248" y="0" type="line"/>
      <point x="1007" y="0" type="line"/>
      <point x="1007" y="126" type="line"/>
      <point x="781" y="146" type="line"/>
      <point x="781" y="1150" type="line"/>
      <point x="939" y="1140" type="line"/>
      <point x="1016" y="742" type="line"/>
      <point x="1182" y="742" type="line"/>
      <point x="1161" y="1292" type="line"/>
      <point x="64" y="1292" type="line"/>
      <point x="37" y="742" type="line"/>
      <point x="212" y="742" type="line"/>
      <point x="288" y="1140" type="line"/>
      <point x="453" y="1150" type="line"/>
    </contour>
  </outline>
</glyph>
<glyph name="te-cy.sc" format="1">
  <advance width="1209"/>
  <outline>
    <contour>
      <point x="605" y="1287" type="move" name="top"/>
    </contour>
    <contour>
      <point x="606" y="-144" type="move" name="mark0"/>
    </contour>
    <contour>
      <point x="605" y="648" type="move" name="center"/>
    </contour>
    <contour>
      <point x="605" y="0" type="move" name="bottom"/>
    </contour>
    <contour>
      <point x="443" y="147" type="line"/>
      <point x="239" y="126" type="line"/>
      <point x="239" y="0" type="line"/>
      <point x="996" y="0" type="line"/>
      <point x="996" y="126" type="line"/>
      <point x="771" y="147" type="line"/>
      <point x="771" y="1150" type="line"/>
      <point x="928" y="1140" type="line"/>
      <point x="1007" y="742" type="line"/>
      <point x="1173" y="742" type="line"/>
      <point x="1151" y="1292" type="line"/>
      <point x="53" y="1292" type="line"/>
      <point x="28" y="742" type="line"/>
      <point x="201" y="742" type="line"/>
      <point x="278" y="1140" type="line"/>
      <point x="443" y="1150" type="line"/>
    </contour>
  </outline>
</glyph>
<glyph name="tedescender-cy.sc" format="1">
  <advance width="1237"/>
  <outline>
    <contour>
      <point x="1060" y="147" type="curve"/>
      <point x="793" y="147" type="line"/>
      <point x="793" y="1150" type="line"/>
      <point x="949" y="1140" type="line"/>
      <point x="1028" y="742" type="line"/>
      <point x="1193" y="742" type="line"/>
      <point x="1171" y="1292" type="line"/>
      <point x="74" y="1292" type="line"/>
      <point x="48" y="742" type="line"/>
      <point x="222" y="742" type="line"/>
      <point x="300" y="1140" type="line"/>
      <point x="463" y="1150" type="line"/>
      <point x="463" y="147" type="line"/>
      <point x="259" y="126" type="line"/>
      <point x="259" y="0" type="line"/>
      <point x="820" y="0" type="line"/>
      <point x="835" y="-76"/>
      <point x="850" y="-307"/>
      <point x="850" y="-366" type="curve"/>
      <point x="1017" y="-366" type="line"/>
      <point x="1025" y="-328"/>
      <point x="1059" y="1"/>
    </contour>
  </outline>
</glyph>
<glyph name="tetse-cy.sc" format="1">
  <advance width="1865"/>
  <outline>
    <contour>
      <point x="1866" y="147" type="curve"/>
      <point x="1675" y="147" type="line"/>
      <point x="1675" y="1133" type="line"/>
      <point x="1792" y="1158" type="line"/>
      <point x="1792" y="1292" type="line"/>
      <point x="1236" y="1292" type="line"/>
      <point x="1236" y="1158" type="line"/>
      <point x="1352" y="1133" type="line"/>
      <point x="1352" y="133" type="line"/>
      <point x="753" y="133" type="line"/>
      <point x="753" y="1152" type="line"/>
      <point x="911" y="1133" type="line"/>
      <point x="978" y="785" type="line"/>
      <point x="1134" y="785" type="line"/>
      <point x="1104" y="1292" type="line"/>
      <point x="56" y="1292" type="line"/>
      <point x="38" y="784" type="line"/>
      <point x="194" y="784" type="line"/>
      <point x="249" y="1133" type="line"/>
      <point x="426" y="1155" type="line"/>
      <point x="426" y="145" type="line"/>
      <point x="244" y="126" type="line"/>
      <point x="244" y="0" type="line"/>
      <point x="1592" y="0" type="line"/>
      <point x="1615" y="-51"/>
      <point x="1657" y="-304"/>
      <point x="1657" y="-364" type="curve"/>
      <point x="1826" y="-364" type="line"/>
      <point x="1833" y="-329"/>
      <point x="1864" y="6"/>
    </contour>
  </outline>
</glyph>
<glyph name="tshe-cy.sc" format="1">
  <advance width="1573"/>
  <outline>
    <contour>
      <point x="634" y="-144" type="move" name="mark0"/>
    </contour>
    <contour>
      <point x="779" y="666" type="curve"/>
      <point x="779" y="1154" type="line"/>
      <point x="982" y="1131" type="line"/>
      <point x="1054" y="871" type="line"/>
      <point x="1214" y="871" type="line"/>
      <point x="1184" y="1292" type="line"/>
      <point x="51" y="1292" type="line"/>
      <point x="29" y="871" type="line"/>
      <point x="198" y="871" type="line"/>
      <point x="250" y="1134" type="line"/>
      <point x="451" y="1156" type="line"/>
      <point x="451" y="147" type="line"/>
      <point x="252" y="126" type="line"/>
      <point x="252" y="0" type="line"/>
      <point x="911" y="0" type="line"/>
      <point x="911" y="126" type="line"/>
      <point x="779" y="147" type="line"/>
      <point x="779" y="520" type="line"/>
      <point x="817" y="544"/>
      <point x="876" y="579"/>
      <point x="968" y="579" type="curve" smooth="yes"/>
      <point x="1107" y="579"/>
      <point x="1119" y="499"/>
      <point x="1119" y="297" type="curve" smooth="yes"/>
      <point x="1119" y="145" type="line"/>
      <point x="1022" y="126" type="line"/>
      <point x="1022" y="0" type="line"/>
      <point x="1556" y="0" type="line"/>
      <point x="1556" y="126" type="line"/>
      <point x="1444" y="145" type="line"/>
      <point x="1444" y="364" type="line" smooth="yes"/>
      <point x="1444" y="637"/>
      <point x="1366" y="751"/>
      <point x="1066" y="751" type="curve" smooth="yes"/>
      <point x="958" y="751"/>
      <point x="860" y="716"/>
    </contour>
  </outline>
</glyph>
<glyph name="udieresis-cy.sc" format="1">
  <advance width="1148"/>
  <outline>
    <contour>
      <point x="792" y="1461" type="curve"/>
      <point x="915" y="1461"/>
      <point x="950" y="1543"/>
      <point x="950" y="1648" type="curve" smooth="yes"/>
      <point x="950" y="1731"/>
      <point x="911" y="1806"/>
      <point x="810" y="1806" type="curve" smooth="yes"/>
      <point x="701" y="1806"/>
      <point x="656" y="1723"/>
      <point x="656" y="1619" type="curve" smooth="yes"/>
      <point x="656" y="1543"/>
      <point x="699" y="1461"/>
    </contour>
    <contour>
      <point x="360" y="1461" type="curve" smooth="yes"/>
      <point x="482" y="1461"/>
      <point x="518" y="1543"/>
      <point x="518" y="1648" type="curve" smooth="yes"/>
      <point x="518" y="1731"/>
      <point x="480" y="1806"/>
      <point x="377" y="1806" type="curve"/>
      <point x="269" y="1806"/>
      <point x="224" y="1723"/>
      <point x="224" y="1619" type="curve" smooth="yes"/>
      <point x="224" y="1534"/>
      <point x="269" y="1461"/>
    </contour>
    <contour>
      <point x="752" y="280" type="curve"/>
      <point x="1046" y="1132" type="line"/>
      <point x="1131" y="1158" type="line"/>
      <point x="1131" y="1292" type="line"/>
      <point x="752" y="1292" type="line"/>
      <point x="752" y="1158" type="line"/>
      <point x="861" y="1134" type="line"/>
      <point x="713" y="638" type="line"/>
      <point x="674" y="504" type="line"/>
      <point x="632" y="636" type="line"/>
      <point x="463" y="1132" type="line"/>
      <point x="595" y="1158" type="line"/>
      <point x="595" y="1292" type="line"/>
      <point x="17" y="1292" type="line"/>
      <point x="17" y="1158" type="line"/>
      <point x="105" y="1134" type="line"/>
      <point x="461" y="266" type="line"/>
      <point x="453" y="198"/>
      <point x="423" y="180"/>
      <point x="317" y="180" type="curve" smooth="yes"/>
      <point x="276" y="180"/>
      <point x="234" y="180"/>
      <point x="195" y="180" type="curve"/>
      <point x="195" y="12" type="line"/>
      <point x="236" y="-4"/>
      <point x="332" y="-20"/>
      <point x="411" y="-20" type="curve" smooth="yes"/>
      <point x="620" y="-20"/>
      <point x="691" y="136"/>
    </contour>
  </outline>
</glyph>
<glyph name="uhungarumlaut-cy.sc" format="1">
  <advance width="1148"/>
  <outline>
    <contour>
      <point x="364" y="1445" type="line"/>
      <point x="438" y="1497"/>
      <point x="643" y="1710"/>
      <point x="700" y="1815" type="curve"/>
      <point x="539" y="1956" type="line"/>
      <point x="257" y="1533" type="line"/>
    </contour>
    <contour>
      <point x="751" y="1445" type="line"/>
      <point x="829" y="1497"/>
      <point x="1049" y="1723"/>
      <point x="1093" y="1818" type="curve"/>
      <point x="939" y="1956" type="line"/>
      <point x="646" y="1534" type="line"/>
    </contour>
    <contour>
      <point x="752" y="280" type="curve"/>
      <point x="1046" y="1132" type="line"/>
      <point x="1131" y="1158" type="line"/>
      <point x="1131" y="1292" type="line"/>
      <point x="752" y="1292" type="line"/>
      <point x="752" y="1158" type="line"/>
      <point x="861" y="1134" type="line"/>
      <point x="713" y="638" type="line"/>
      <point x="674" y="504" type="line"/>
      <point x="632" y="636" type="line"/>
      <point x="463" y="1132" type="line"/>
      <point x="595" y="1158" type="line"/>
      <point x="595" y="1292" type="line"/>
      <point x="17" y="1292" type="line"/>
      <point x="17" y="1158" type="line"/>
      <point x="105" y="1134" type="line"/>
      <point x="461" y="266" type="line"/>
      <point x="453" y="198"/>
      <point x="423" y="180"/>
      <point x="317" y="180" type="curve" smooth="yes"/>
      <point x="276" y="180"/>
      <point x="234" y="180"/>
      <point x="195" y="180" type="curve"/>
      <point x="195" y="12" type="line"/>
      <point x="236" y="-4"/>
      <point x="332" y="-20"/>
      <point x="411" y="-20" type="curve" smooth="yes"/>
      <point x="620" y="-20"/>
      <point x="691" y="136"/>
    </contour>
  </outline>
</glyph>
<glyph name="ushort-cy.sc" format="1">
  <advance width="1148"/>
  <outline>
    <contour>
      <point x="420" y="1865" type="curve" smooth="yes"/>
      <point x="218" y="1865" type="line"/>
      <point x="218" y="1847"/>
      <point x="216" y="1829"/>
      <point x="216" y="1811" type="curve" smooth="yes"/>
      <point x="216" y="1601"/>
      <point x="364" y="1456"/>
      <point x="584" y="1456" type="curve" smooth="yes"/>
      <point x="815" y="1456"/>
      <point x="952" y="1600"/>
      <point x="952" y="1811" type="curve" smooth="yes"/>
      <point x="952" y="1823"/>
      <point x="952" y="1853"/>
      <point x="950" y="1865" type="curve"/>
      <point x="747" y="1865" type="line" smooth="yes"/>
      <point x="722" y="1865"/>
      <point x="718" y="1807"/>
      <point x="718" y="1770" type="curve" smooth="yes"/>
      <point x="718" y="1671"/>
      <point x="675" y="1580"/>
      <point x="586" y="1580" type="curve" smooth="yes"/>
      <point x="493" y="1580"/>
      <point x="449" y="1671"/>
      <point x="449" y="1770" type="curve" smooth="yes"/>
      <point x="449" y="1807"/>
      <point x="446" y="1865"/>
    </contour>
    <contour>
      <point x="752" y="280" type="curve"/>
      <point x="1046" y="1132" type="line"/>
      <point x="1131" y="1158" type="line"/>
      <point x="1131" y="1292" type="line"/>
      <point x="752" y="1292" type="line"/>
      <point x="752" y="1158" type="line"/>
      <point x="861" y="1134" type="line"/>
      <point x="713" y="638" type="line"/>
      <point x="674" y="504" type="line"/>
      <point x="632" y="636" type="line"/>
      <point x="463" y="1132" type="line"/>
      <point x="595" y="1158" type="line"/>
      <point x="595" y="1292" type="line"/>
      <point x="17" y="1292" type="line"/>
      <point x="17" y="1158" type="line"/>
      <point x="105" y="1134" type="line"/>
      <point x="461" y="266" type="line"/>
      <point x="453" y="198"/>
      <point x="423" y="180"/>
      <point x="317" y="180" type="curve" smooth="yes"/>
      <point x="276" y="180"/>
      <point x="234" y="180"/>
      <point x="195" y="180" type="curve"/>
      <point x="195" y="12" type="line"/>
      <point x="236" y="-4"/>
      <point x="332" y="-20"/>
      <point x="411" y="-20" type="curve" smooth="yes"/>
      <point x="620" y="-20"/>
      <point x="691" y="136"/>
    </contour>
  </outline>
</glyph>
<glyph name="ustraitstroke-cy.sc" format="1">
  <advance width="1185"/>
  <outline>
    <contour>
      <point x="85" y="1292" type="move" name="topleft"/>
    </contour>
    <contour>
      <point x="592" y="506" type="move" name="center"/>
    </contour>
    <contour>
      <point x="591" y="0" type="move" name="bottom"/>
    </contour>
    <contour>
      <point x="639" y="1292" type="move" name="top"/>
    </contour>
    <contour>
      <point x="592" y="506" type="move" name="_center"/>
    </contour>
    <contour>
      <point x="483" y="-144" type="move" name="mark0"/>
    </contour>
    <contour>
      <point x="425" y="146" type="line"/>
      <point x="262" y="126" type="line"/>
      <point x="262" y="0" type="line"/>
      <point x="942" y="0" type="line"/>
      <point x="942" y="126" type="line"/>
      <point x="775" y="146" type="line"/>
      <point x="775" y="540" type="line"/>
      <point x="1073" y="1138" type="line"/>
      <point x="1168" y="1158" type="line"/>
      <point x="1168" y="1292" type="line"/>
      <point x="733" y="1292" type="line"/>
      <point x="733" y="1158" type="line"/>
      <point x="853" y="1132" type="line"/>
      <point x="709" y="760" type="line"/>
      <point x="673" y="656" type="line"/>
      <point x="639" y="760" type="line"/>
      <point x="476" y="1132" type="line"/>
      <point x="571" y="1158" type="line"/>
      <point x="571" y="1292" type="line"/>
      <point x="17" y="1292" type="line"/>
      <point x="17" y="1158" type="line"/>
      <point x="102" y="1134" type="line"/>
      <point x="425" y="538" type="line"/>
    </contour>
    <contour>
      <point x="933" y="584" type="line"/>
      <point x="256" y="584" type="line"/>
      <point x="256" y="376" type="line"/>
      <point x="933" y="376" type="line"/>
    </contour>
  </outline>
</glyph>
<glyph name="ve-cy.loclBGR.sc" format="1">
  <advance width="1195"/>
  <outline>
    <contour>
      <point x="180" y="146" type="line"/>
      <point x="62" y="126" type="line"/>
      <point x="62" y="0" type="line"/>
      <point x="345" y="0" type="line" smooth="yes"/>
      <point x="445" y="0"/>
      <point x="491" y="-10"/>
      <point x="625" y="-10" type="curve" smooth="yes"/>
      <point x="1044" y="-10"/>
      <point x="1154" y="162"/>
      <point x="1154" y="394" type="curve" smooth="yes"/>
      <point x="1154" y="588"/>
      <point x="1020" y="690"/>
      <point x="804" y="692" type="curve"/>
      <point x="954" y="710"/>
      <point x="1072" y="824"/>
      <point x="1072" y="1008" type="curve" smooth="yes"/>
      <point x="1072" y="1188"/>
      <point x="995" y="1304"/>
      <point x="606" y="1304" type="curve" smooth="yes"/>
      <point x="522" y="1304"/>
      <point x="442" y="1292"/>
      <point x="340" y="1292" type="curve" smooth="yes"/>
      <point x="64" y="1292" type="line"/>
      <point x="64" y="1158" type="line"/>
      <point x="180" y="1132" type="line"/>
    </contour>
    <contour>
      <point x="506" y="738" type="curve"/>
      <point x="506" y="1172" type="line"/>
      <point x="519" y="1176"/>
      <point x="591" y="1180"/>
      <point x="597" y="1180" type="curve" smooth="yes"/>
      <point x="705" y="1180"/>
      <point x="758" y="1118"/>
      <point x="758" y="980" type="curve" smooth="yes"/>
      <point x="758" y="834"/>
      <point x="721" y="734"/>
      <point x="611" y="734" type="curve" smooth="yes"/>
      <point x="572" y="734"/>
      <point x="525" y="736"/>
    </contour>
    <contour>
      <point x="506" y="134" type="curve"/>
      <point x="506" y="588" type="line"/>
      <point x="528" y="590"/>
      <point x="580" y="592"/>
      <point x="622" y="592" type="curve" smooth="yes"/>
      <point x="740" y="592"/>
      <point x="803" y="540"/>
      <point x="803" y="378" type="curve" smooth="yes"/>
      <point x="803" y="220"/>
      <point x="752" y="120"/>
      <point x="615" y="120" type="curve" smooth="yes"/>
      <point x="577" y="120"/>
      <point x="523" y="124"/>
    </contour>
  </outline>
</glyph>
<glyph name="we-cy.sc" format="1">
  <advance width="1728"/>
  <outline>
    <contour>
      <point x="915" y="1286" type="move" name="top"/>
    </contour>
    <contour>
      <point x="757" y="-144" type="move" name="mark0"/>
    </contour>
    <contour>
      <point x="864" y="0" type="move" name="bottom"/>
    </contour>
    <contour>
      <point x="-8" y="1158" type="line"/>
      <point x="80" y="1132" type="line"/>
      <point x="401" y="-8" type="line"/>
      <point x="691" y="-8" type="line"/>
      <point x="868" y="726" type="line"/>
      <point x="1058" y="-8" type="line"/>
      <point x="1351" y="-8" type="line"/>
      <point x="1638" y="1132" type="line"/>
      <point x="1735" y="1158" type="line"/>
      <point x="1735" y="1292" type="line"/>
      <point x="1339" y="1292" type="line"/>
      <point x="1339" y="1158" type="line"/>
      <point x="1466" y="1132" type="line"/>
      <point x="1306" y="382" type="line"/>
      <point x="1288" y="242" type="line"/>
      <point x="1263" y="382" type="line"/>
      <point x="1081" y="1132" type="line"/>
      <point x="1233" y="1158" type="line"/>
      <point x="1233" y="1292" type="line"/>
      <point x="649" y="1292" type="line"/>
      <point x="649" y="1158" type="line"/>
      <point x="744" y="1132" type="line"/>
      <point x="793" y="982" type="line"/>
      <point x="638" y="382" type="line"/>
      <point x="623" y="254" type="line"/>
      <point x="601" y="382" type="line"/>
      <point x="420" y="1132" type="line"/>
      <point x="548" y="1158" type="line"/>
      <point x="548" y="1292" type="line"/>
      <point x="-8" y="1292" type="line"/>
    </contour>
  </outline>
</glyph>
<glyph name="yerudieresis-cy.sc" format="1">
  <advance width="1818"/>
  <outline>
    <contour>
      <point x="1116" y="1462" type="curve"/>
      <point x="1239" y="1462"/>
      <point x="1274" y="1544"/>
      <point x="1274" y="1649" type="curve" smooth="yes"/>
      <point x="1274" y="1732"/>
      <point x="1235" y="1807"/>
      <point x="1133" y="1807" type="curve" smooth="yes"/>
      <point x="1025" y="1807"/>
      <point x="980" y="1724"/>
      <point x="980" y="1620" type="curve" smooth="yes"/>
      <point x="980" y="1544"/>
      <point x="1023" y="1462"/>
    </contour>
    <contour>
      <point x="684" y="1462" type="curve" smooth="yes"/>
      <point x="806" y="1462"/>
      <point x="842" y="1544"/>
      <point x="842" y="1649" type="curve" smooth="yes"/>
      <point x="842" y="1732"/>
      <point x="803" y="1807"/>
      <point x="701" y="1807" type="curve"/>
      <point x="593" y="1807"/>
      <point x="548" y="1724"/>
      <point x="548" y="1620" type="curve" smooth="yes"/>
      <point x="548" y="1535"/>
      <point x="593" y="1462"/>
    </contour>
    <contour>
      <point x="496" y="771" type="curve"/>
      <point x="496" y="1134" type="line"/>
      <point x="672" y="1162" type="line"/>
      <point x="672" y="1292" type="line"/>
      <point x="52" y="1292" type="line"/>
      <point x="52" y="1162" type="line"/>
      <point x="168" y="1136" type="line"/>
      <point x="168" y="145" type="line"/>
      <point x="50" y="126" type="line"/>
      <point x="50" y="0" type="line"/>
      <point x="302" y="0" type="line" smooth="yes"/>
      <point x="458" y="0"/>
      <point x="556" y="-14"/>
      <point x="679" y="-14" type="curve" smooth="yes"/>
      <point x="918" y="-14"/>
      <point x="1118" y="143"/>
      <point x="1118" y="402" type="curve" smooth="yes"/>
      <point x="1118" y="632"/>
      <point x="988" y="777"/>
      <point x="704" y="777" type="curve" smooth="yes"/>
      <point x="675" y="777"/>
      <point x="507" y="772"/>
    </contour>
    <contour>
      <point x="496" y="131" type="curve"/>
      <point x="496" y="638" type="line"/>
      <point x="502" y="639"/>
      <point x="592" y="642"/>
      <point x="606" y="642" type="curve" smooth="yes"/>
      <point x="730" y="642"/>
      <point x="781" y="561"/>
      <point x="781" y="386" type="curve" smooth="yes"/>
      <point x="781" y="253"/>
      <point x="745" y="119"/>
      <point x="587" y="119" type="curve" smooth="yes"/>
      <point x="551" y="119"/>
      <point x="519" y="123"/>
    </contour>
    <contour>
      <point x="1182" y="1292" type="line"/>
      <point x="1182" y="1158" type="line"/>
      <point x="1305" y="1133" type="line"/>
      <point x="1305" y="147" type="line"/>
      <point x="1184" y="126" type="line"/>
      <point x="1184" y="0" type="line"/>
      <point x="1762" y="0" type="line"/>
      <point x="1762" y="124" type="line"/>
      <point x="1635" y="145" type="line"/>
      <point x="1635" y="1133" type="line"/>
      <point x="1762" y="1158" type="line"/>
      <point x="1762" y="1292" type="line"/>
    </contour>
  </outline>
</glyph>
<glyph name="yi-cy.sc" format="1">
  <advance width="687"/>
  <outline>
    <contour>
      <point x="551" y="1462" type="curve"/>
      <point x="674" y="1462"/>
      <point x="709" y="1544"/>
      <point x="709" y="1649" type="curve" smooth="yes"/>
      <point x="709" y="1732"/>
      <point x="670" y="1807"/>
      <point x="569" y="1807" type="curve" smooth="yes"/>
      <point x="461" y="1807"/>
      <point x="415" y="1724"/>
      <point x="415" y="1620" type="curve" smooth="yes"/>
      <point x="415" y="1544"/>
      <point x="458" y="1462"/>
    </contour>
    <contour>
      <point x="119" y="1462" type="curve" smooth="yes"/>
      <point x="241" y="1462"/>
      <point x="277" y="1544"/>
      <point x="277" y="1649" type="curve" smooth="yes"/>
      <point x="277" y="1732"/>
      <point x="239" y="1807"/>
      <point x="136" y="1807" type="curve"/>
      <point x="28" y="1807"/>
      <point x="-17" y="1724"/>
      <point x="-17" y="1620" type="curve" smooth="yes"/>
      <point x="-17" y="1535"/>
      <point x="28" y="1462"/>
    </contour>
    <contour>
      <point x="182" y="146" type="line"/>
      <point x="56" y="126" type="line"/>
      <point x="56" y="0" type="line"/>
      <point x="633" y="0" type="line"/>
      <point x="633" y="124" type="line"/>
      <point x="499" y="144" type="line"/>
      <point x="499" y="1132" type="line"/>
      <point x="633" y="1158" type="line"/>
      <point x="633" y="1292" type="line"/>
      <point x="54" y="1292" type="line"/>
      <point x="54" y="1158" type="line"/>
      <point x="182" y="1132" type="line"/>
    </contour>
  </outline>
</glyph>
<glyph name="yusbig-cy.sc" format="1">
  <advance width="1806"/>
  <outline>
    <contour>
      <point x="715" y="599" type="curve" smooth="yes"/>
      <point x="748" y="599" type="line"/>
      <point x="748" y="147" type="line"/>
      <point x="608" y="126" type="line"/>
      <point x="608" y="0" type="line"/>
      <point x="1207" y="0" type="line"/>
      <point x="1207" y="124" type="line"/>
      <point x="1062" y="147" type="line"/>
      <point x="1062" y="599" type="line"/>
      <point x="1093" y="599" type="line" smooth="yes"/>
      <point x="1278" y="599"/>
      <point x="1313" y="0"/>
      <point x="1451" y="0" type="curve" smooth="yes"/>
      <point x="1786" y="0" type="line"/>
      <point x="1786" y="126" type="line"/>
      <point x="1717" y="147" type="line" smooth="yes"/>
      <point x="1639" y="179"/>
      <point x="1574" y="713"/>
      <point x="1238" y="713" type="curve" smooth="yes"/>
      <point x="1112" y="713" type="line"/>
      <point x="1512" y="1181" type="line"/>
      <point x="1503" y="1292" type="line"/>
      <point x="305" y="1292" type="line"/>
      <point x="298" y="1181" type="line"/>
      <point x="696" y="713" type="line"/>
      <point x="571" y="713" type="line" smooth="yes"/>
      <point x="234" y="713"/>
      <point x="170" y="179"/>
      <point x="90" y="147" type="curve" smooth="yes"/>
      <point x="23" y="126" type="line"/>
      <point x="23" y="0" type="line"/>
      <point x="358" y="0" type="line" smooth="yes"/>
      <point x="498" y="0"/>
      <point x="530" y="599"/>
    </contour>
    <contour>
      <point x="598" y="1106" type="line"/>
      <point x="1210" y="1106" type="line"/>
      <point x="903" y="711" type="line"/>
    </contour>
  </outline>
</glyph>
<glyph name="ze-cy.sc" format="1">
  <advance width="1046"/>
  <outline>
    <contour>
      <point x="523" y="1287" type="move" name="top"/>
    </contour>
    <contour>
      <point x="523" y="0" type="move" name="bottom"/>
    </contour>
    <contour>
      <point x="83" y="1256" type="curve"/>
      <point x="113" y="954" type="line"/>
      <point x="289" y="954" type="line"/>
      <point x="326" y="1133" type="line"/>
      <point x="336" y="1157"/>
      <point x="372" y="1183"/>
      <point x="452" y="1183" type="curve" smooth="yes"/>
      <point x="547" y="1183"/>
      <point x="621" y="1130"/>
      <point x="622" y="998" type="curve" smooth="yes"/>
      <point x="622" y="812"/>
      <point x="535" y="747"/>
      <point x="429" y="747" type="curve" smooth="yes"/>
      <point x="345" y="747" type="line"/>
      <point x="345" y="604" type="line"/>
      <point x="443" y="604" type="line" smooth="yes"/>
      <point x="588" y="604"/>
      <point x="624" y="483"/>
      <point x="624" y="377" type="curve" smooth="yes"/>
      <point x="624" y="217"/>
      <point x="579" y="109"/>
      <point x="470" y="109" type="curve" smooth="yes"/>
      <point x="396" y="109"/>
      <point x="351" y="134"/>
      <point x="329" y="160" type="curve"/>
      <point x="272" y="412" type="line"/>
      <point x="112" y="412" type="line"/>
      <point x="70" y="63" type="line"/>
      <point x="153" y="56"/>
      <point x="253" y="-10"/>
      <point x="455" y="-10" type="curve" smooth="yes"/>
      <point x="876" y="-10"/>
      <point x="996" y="150"/>
      <point x="996" y="393" type="curve" smooth="yes"/>
      <point x="996" y="561"/>
      <point x="883" y="673"/>
      <point x="676" y="682" type="curve"/>
      <point x="822" y="712"/>
      <point x="965" y="811"/>
      <point x="965" y="1010" type="curve" smooth="yes"/>
      <point x="965" y="1210"/>
      <point x="791" y="1306"/>
      <point x="487" y="1306" type="curve" smooth="yes"/>
      <point x="365" y="1306"/>
      <point x="151" y="1260"/>
    </contour>
  </outline>
</glyph>
<glyph name="zedescender-cy.loclBSH.sc" format="1">
  <advance width="1046"/>
  <outline>
    <contour>
      <point x="329" y="160" type="curve"/>
      <point x="272" y="412" type="line"/>
      <point x="112" y="412" type="line"/>
      <point x="70" y="63" type="line"/>
      <point x="151" y="56"/>
      <point x="249" y="-9"/>
      <point x="444" y="-10" type="curve"/>
      <point x="479" y="-56"/>
      <point x="499" y="-119"/>
      <point x="499" y="-180" type="curve"/>
      <point x="392" y="-341" type="line"/>
      <point x="404" y="-416"/>
      <point x="456" y="-475"/>
      <point x="547" y="-475" type="curve" smooth="yes"/>
      <point x="632" y="-475"/>
      <point x="709" y="-412"/>
      <point x="709" y="-297" type="curve" smooth="yes"/>
      <point x="709" y="-186"/>
      <point x="649" y="-79"/>
      <point x="586" y="-3" type="curve"/>
      <point x="895" y="25"/>
      <point x="996" y="172"/>
      <point x="996" y="393" type="curve" smooth="yes"/>
      <point x="996" y="561"/>
      <point x="883" y="673"/>
      <point x="676" y="682" type="curve"/>
      <point x="822" y="712"/>
      <point x="965" y="811"/>
      <point x="965" y="1010" type="curve" smooth="yes"/>
      <point x="965" y="1210"/>
      <point x="791" y="1306"/>
      <point x="487" y="1306" type="curve" smooth="yes"/>
      <point x="365" y="1306"/>
      <point x="151" y="1260"/>
      <point x="83" y="1256" type="curve"/>
      <point x="113" y="954" type="line"/>
      <point x="289" y="954" type="line"/>
      <point x="326" y="1133" type="line"/>
      <point x="336" y="1157"/>
      <point x="372" y="1183"/>
      <point x="452" y="1183" type="curve" smooth="yes"/>
      <point x="547" y="1183"/>
      <point x="621" y="1130"/>
      <point x="622" y="998" type="curve" smooth="yes"/>
      <point x="622" y="812"/>
      <point x="535" y="747"/>
      <point x="429" y="747" type="curve" smooth="yes"/>
      <point x="345" y="747" type="line"/>
      <point x="345" y="604" type="line"/>
      <point x="443" y="604" type="line" smooth="yes"/>
      <point x="588" y="604"/>
      <point x="624" y="483"/>
      <point x="624" y="377" type="curve" smooth="yes"/>
      <point x="624" y="217"/>
      <point x="579" y="109"/>
      <point x="468" y="109" type="curve" smooth="yes"/>
      <point x="396" y="109"/>
      <point x="351" y="134"/>
    </contour>
  </outline>
</glyph>
<glyph name="zhe-cy.sc" format="1">
  <advance width="1758"/>
  <outline>
    <contour>
      <point x="879" y="1287" type="move" name="top"/>
    </contour>
    <contour>
      <point x="1723" y="0" type="move" name="bottomright"/>
    </contour>
    <contour>
      <point x="1310" y="705" type="curve"/>
      <point x="1589" y="1133" type="line"/>
      <point x="1732" y="1158" type="line"/>
      <point x="1732" y="1292" type="line"/>
      <point x="1265" y="1292" type="line"/>
      <point x="1265" y="1158" type="line"/>
      <point x="1366" y="1134" type="line"/>
      <point x="1131" y="711" type="line"/>
      <point x="1037" y="711" type="line"/>
      <point x="1037" y="1134" type="line"/>
      <point x="1167" y="1158" type="line"/>
      <point x="1167" y="1292" type="line"/>
      <point x="593" y="1292" type="line"/>
      <point x="593" y="1158" type="line"/>
      <point x="723" y="1134" type="line"/>
      <point x="723" y="711" type="line"/>
      <point x="626" y="711" type="line"/>
      <point x="391" y="1134" type="line"/>
      <point x="493" y="1158" type="line"/>
      <point x="493" y="1292" type="line"/>
      <point x="31" y="1292" type="line"/>
      <point x="31" y="1158" type="line"/>
      <point x="168" y="1133" type="line"/>
      <point x="448" y="705" type="line"/>
      <point x="199" y="640"/>
      <point x="134" y="178"/>
      <point x="53" y="147" type="curve" smooth="yes"/>
      <point x="-1" y="126" type="line"/>
      <point x="-1" y="0" type="line"/>
      <point x="321" y="0" type="line" smooth="yes"/>
      <point x="461" y="0"/>
      <point x="506" y="599"/>
      <point x="690" y="599" type="curve" smooth="yes"/>
      <point x="723" y="599" type="line"/>
      <point x="723" y="147" type="line"/>
      <point x="583" y="126" type="line"/>
      <point x="583" y="0" type="line"/>
      <point x="1182" y="0" type="line"/>
      <point x="1182" y="124" type="line"/>
      <point x="1037" y="147" type="line"/>
      <point x="1037" y="599" type="line"/>
      <point x="1068" y="599" type="line" smooth="yes"/>
      <point x="1253" y="599"/>
      <point x="1288" y="0"/>
      <point x="1424" y="0" type="curve"/>
      <point x="1761" y="0" type="line"/>
      <point x="1761" y="126" type="line"/>
      <point x="1702" y="147" type="line" smooth="yes"/>
      <point x="1621" y="178"/>
      <point x="1558" y="640"/>
    </contour>
  </outline>
</glyph>
<glyph name="zhebreve-cy.sc" format="1">
  <advance width="1758"/>
  <outline>
    <contour>
      <point x="713" y="1866" type="curve" smooth="yes"/>
      <point x="511" y="1866" type="line"/>
      <point x="511" y="1848"/>
      <point x="509" y="1830"/>
      <point x="509" y="1812" type="curve" smooth="yes"/>
      <point x="509" y="1602"/>
      <point x="657" y="1457"/>
      <point x="877" y="1457" type="curve" smooth="yes"/>
      <point x="1108" y="1457"/>
      <point x="1245" y="1601"/>
      <point x="1245" y="1812" type="curve" smooth="yes"/>
      <point x="1245" y="1824"/>
      <point x="1245" y="1854"/>
      <point x="1243" y="1866" type="curve"/>
      <point x="1040" y="1866" type="line" smooth="yes"/>
      <point x="1015" y="1866"/>
      <point x="1011" y="1808"/>
      <point x="1011" y="1771" type="curve" smooth="yes"/>
      <point x="1011" y="1672"/>
      <point x="968" y="1581"/>
      <point x="879" y="1581" type="curve" smooth="yes"/>
      <point x="786" y="1581"/>
      <point x="742" y="1672"/>
      <point x="742" y="1771" type="curve" smooth="yes"/>
      <point x="742" y="1808"/>
      <point x="739" y="1866"/>
    </contour>
    <contour>
      <point x="1310" y="705" type="curve"/>
      <point x="1589" y="1133" type="line"/>
      <point x="1732" y="1158" type="line"/>
      <point x="1732" y="1292" type="line"/>
      <point x="1265" y="1292" type="line"/>
      <point x="1265" y="1158" type="line"/>
      <point x="1366" y="1134" type="line"/>
      <point x="1131" y="711" type="line"/>
      <point x="1037" y="711" type="line"/>
      <point x="1037" y="1134" type="line"/>
      <point x="1167" y="1158" type="line"/>
      <point x="1167" y="1292" type="line"/>
      <point x="593" y="1292" type="line"/>
      <point x="593" y="1158" type="line"/>
      <point x="723" y="1134" type="line"/>
      <point x="723" y="711" type="line"/>
      <point x="626" y="711" type="line"/>
      <point x="391" y="1134" type="line"/>
      <point x="493" y="1158" type="line"/>
      <point x="493" y="1292" type="line"/>
      <point x="31" y="1292" type="line"/>
      <point x="31" y="1158" type="line"/>
      <point x="168" y="1133" type="line"/>
      <point x="448" y="705" type="line"/>
      <point x="199" y="640"/>
      <point x="134" y="178"/>
      <point x="53" y="147" type="curve" smooth="yes"/>
      <point x="-1" y="126" type="line"/>
      <point x="-1" y="0" type="line"/>
      <point x="321" y="0" type="line" smooth="yes"/>
      <point x="461" y="0"/>
      <point x="506" y="599"/>
      <point x="690" y="599" type="curve" smooth="yes"/>
      <point x="723" y="599" type="line"/>
      <point x="723" y="147" type="line"/>
      <point x="583" y="126" type="line"/>
      <point x="583" y="0" type="line"/>
      <point x="1182" y="0" type="line"/>
      <point x="1182" y="124" type="line"/>
      <point x="1037" y="147" type="line"/>
      <point x="1037" y="599" type="line"/>
      <point x="1068" y="599" type="line" smooth="yes"/>
      <point x="1253" y="599"/>
      <point x="1288" y="0"/>
      <point x="1424" y="0" type="curve"/>
      <point x="1761" y="0" type="line"/>
      <point x="1761" y="126" type="line"/>
      <point x="1702" y="147" type="line" smooth="yes"/>
      <point x="1621" y="178"/>
      <point x="1558" y="640"/>
    </contour>
  </outline>
</glyph>
